<svg xmlns="http://www.w3.org/2000/svg" viewBox="0 0 101.67 60.71"><defs><style>.cls-1{fill:#fff;}</style></defs><title>Asset 1</title><g id="Layer_2" data-name="Layer 2"><g id="Layer_1-2" data-name="Layer 1"><path class="cls-1" d="M17.45,43H12.13V59.93H4V43H0l0-6.42H4.05V34.29c0-4.75,2.61-7.54,7.65-7.54h5.71V33H13.8A1.78,1.78,0,0,0,11.86,35v1.61h5.59Z"/><path class="cls-1" d="M18.75,48.05c0-7.36,5.57-12.65,13.32-12.65s13.31,5.29,13.31,12.65S39.79,60.71,32.07,60.71,18.75,55.39,18.75,48.05m13.32,5.31a5,5,0,0,0,5.12-5.3,5.13,5.13,0,1,0-10.25,0A5,5,0,0,0,32.07,53.36Z"/><path class="cls-1" d="M47.78,48.05c0-7.36,5.57-12.65,13.32-12.65s13.31,5.29,13.31,12.65S68.81,60.71,61.1,60.71,47.78,55.39,47.78,48.05M61.1,53.36a5,5,0,0,0,5.12-5.3,5.13,5.13,0,1,0-10.25,0A5,5,0,0,0,61.1,53.36Z"/><path class="cls-1" d="M101.67,45.63v14.3a8.18,8.18,0,0,1-8.18-8.18V46.58c0-2.74-1-4.14-3.1-4.14-2.47,0-4,1.76-4,4.81V59.93H78.19V27.6h8.18V37.74a10.14,10.14,0,0,1,6.34-2.26c5.45,0,9,4,9,10.15"/><path class="cls-1" d="M14.19,7.54h0a.26.26,0,0,1,.29-.43l.56.36c.37.22.91.55,1.6.94,1.38.77,3.35,1.81,5.72,2.85,4.75,2.07,11.1,4.14,17.48,4.13a22.86,22.86,0,0,0,12-3.13c2.43-1.47,3.37-3.44,3.38-5.15a4,4,0,0,0-1-2.68,3.17,3.17,0,0,0-2.41-1.11,3.32,3.32,0,0,0-.81.1c-1.91.43-2.75,1.48-2.75,2.45S49,7.66,50.47,8.14a.26.26,0,0,1-.09.5,4.17,4.17,0,0,1-4-4.05c0-1.58,1-3.22,3.4-4.11A7,7,0,0,1,52.26,0,5.64,5.64,0,0,1,56.7,2.14,7.74,7.74,0,0,1,58.37,7a8.89,8.89,0,0,1-4.07,7.37,20.24,20.24,0,0,1-11.66,3.32C29,17.72,14.34,7.64,14.19,7.54h0m53.88,6a.25.25,0,0,0-.1-.32.25.25,0,0,0-.33.05l-.06.06C66.93,14,61,19.84,45.47,22a44.74,44.74,0,0,1-6.33.45A38,38,0,0,1,24.83,19.8,28,28,0,0,1,21.09,18c-.42-.24-.73-.45-.94-.59l-.24-.17-.08,0a.24.24,0,0,0-.34,0,.25.25,0,0,0,0,.35A17.47,17.47,0,0,0,21,19c2.72,2.21,9.07,6.14,20.13,6.14,1.46,0,3-.07,4.62-.22,18.06-1.65,22.26-11.32,22.28-11.38m2.82,11.2A5.84,5.84,0,0,1,69.77,24c-.36-.3-.64-.56-.64-.56l-.22-.06-.19.15h0c-.08.15-2.07,4.11-13.86,5.26l-.19.12,0,.22.09.12.2.1a15.51,15.51,0,0,0,4.33.55,15.93,15.93,0,0,0,10.66-3.77c.4-.35.74-.67,1-.95L71,24.9Zm4.8-17a4.89,4.89,0,1,0,4.89,4.89,4.89,4.89,0,0,0-4.89-4.89m1,7.53a.33.33,0,0,1-.18.36,2.85,2.85,0,0,1-.91.28,2.9,2.9,0,0,1-3.23-2.53,2.84,2.84,0,0,1,.35-1.76.32.32,0,0,1,.37-.16.33.33,0,0,1,.24.32c0,.12,0,.24,0,.36a3.27,3.27,0,0,0,1,1.92l-.23.23.23-.23a3.24,3.24,0,0,0,2.06.95.33.33,0,0,1,.3.26"/></g></g></svg>