<svg id="Layer_1" data-name="Layer 1" xmlns="http://www.w3.org/2000/svg" viewBox="0 0 50 35"><defs><style>.cls-1{fill:#faa630;}</style></defs><path class="cls-1" d="M22,12.73H20.24a1.63,1.63,0,0,0-.67.06c-.09.05-.12.16-.12.43,0,.09,0,.21,0,.34s0,.14,0,.16a.32.32,0,0,0,.17,0h3.39c.42,0,.62,0,.69-.09s.09-.28.09-.69c0-.12,0-.18-.06-.21a.42.42,0,0,0-.21,0H22"/><path class="cls-1" d="M20.83,9.84h3.41a1.21,1.21,0,0,0,.61-.06c.09,0,.11-.17.11-.45V9a.25.25,0,0,0,0-.17.27.27,0,0,0-.17,0H21.33c-.4,0-.6,0-.67.09s-.08.27-.09.68a.21.21,0,0,0,.26.26"/><path class="cls-1" d="M18.87,8.81h0c-.27,0-.39,0-.43.07s-.06.22-.06.54v.16l.05.2s.09.07.22.07h.07c.37,0,.55,0,.62-.09s.07-.15.07-.44,0-.41-.05-.45-.16-.06-.43-.06v0Z"/><path class="cls-1" d="M17.52,12.72h0c-.12,0-.18,0-.21.06s-.05.11-.05.22v0h0a1.77,1.77,0,0,0,.06.64c0,.06.13.07.37.07h.1c.27,0,.4,0,.44-.07s.06-.17.06-.43v-.07c0-.25,0-.35-.09-.39a1.7,1.7,0,0,0-.64-.07v0Z"/><path class="cls-1" d="M31.25,19c.07.12.13.16.18.16a.36.36,0,0,0,.21-.13,5.34,5.34,0,0,0,1.7-3.81A5.53,5.53,0,0,0,33,13.13c-.09-.21-.15-.37-.2-.46s-.1-.12-.16-.12a1.64,1.64,0,0,0-.53.25l-.06,0h0c-.15.06-.18.1-.18.18a.49.49,0,0,0,.07.22,4.72,4.72,0,0,1,.44,1.91,4.41,4.41,0,0,1-1.07,2.78c-.16.19-.45.32-.44.47v0h0c0,.17.27.35.42.56"/><path class="cls-1" d="M41.73,4.49a.78.78,0,0,0-.36-.72c-.62-.45-1.24-.91-1.84-1.39a1.26,1.26,0,0,0-.83-.28H21.42a15.6,15.6,0,0,0-4.09.39A11.88,11.88,0,0,0,8.5,13.89c0,.17,0,.33,0,.5a11.4,11.4,0,0,0,3.15,7.9.85.85,0,0,1,.22.38,7,7,0,0,0,1.61,3.14l.12.25a.38.38,0,0,1-.14.26c-1.48,1.45-2.93,2.93-4.4,4.39a2.43,2.43,0,0,0-.78,1.78,2.81,2.81,0,0,0,0,.5,2.25,2.25,0,0,0,1.77,1.92,2.61,2.61,0,0,0,.66.09,2.27,2.27,0,0,0,1.81-.93c1.48-1.88,2.94-3.76,4.39-5.66a.6.6,0,0,1,.49-.28l.21,0a5.4,5.4,0,0,0,1.34.13H41a.88.88,0,0,0,.63-.15.91.91,0,0,0,.15-.62V16.06c0-.34,0-.67,0-1,0-1.27,0-2.53,0-3.79V4.49M10.55,18.91a10.67,10.67,0,0,1-1-4.66A11,11,0,0,1,16.12,4a10.73,10.73,0,0,1,4.3-.87H37.89c.26,0,.4,0,.5.09s.08.23.08.49v8.7q0,6.1,0,12.2a.47.47,0,0,1-.08.33.42.42,0,0,1-.34.11H19.81v0l0-.09v0l.05,0,1.12-.32L22.61,24a3.86,3.86,0,0,0,1.71-1c.49-.49,1-1,1.47-1.48a.43.43,0,0,1,.31-.17.5.5,0,0,1,.29.11c.2.16.44.3.66.46a5.94,5.94,0,0,0,3.7,1.35,7.46,7.46,0,0,0,3.42-.93,5.34,5.34,0,0,0,2.26-2.08,3.14,3.14,0,0,0,.45-1.56,3,3,0,0,0-.28-1.23,10.17,10.17,0,0,1-.81-2.09,6.44,6.44,0,0,1-.13-1.3,6.82,6.82,0,0,1,.58-2.72c.19-.44.38-.88.53-1.33A3.14,3.14,0,0,0,37,9,3.12,3.12,0,0,0,36.09,7a6,6,0,0,0-2.74-1.68,7.92,7.92,0,0,0-2.64-.48,6.11,6.11,0,0,0-2.31.44,10.91,10.91,0,0,1-4,.75,13,13,0,0,1-3.12-.4,7.54,7.54,0,0,0-1.92-.24,11,11,0,0,0-4.34,1,3.08,3.08,0,0,0-1.25,1,2.1,2.1,0,0,0-.3,2.22c.17.39.38.76.57,1.15a3.77,3.77,0,0,1,.45,1.75A3.7,3.7,0,0,1,14,14.31a4.29,4.29,0,0,0-.64,1.55,1.77,1.77,0,0,0,0,.32A2.08,2.08,0,0,0,14,17.76c1,1,2.12,1.81,3.19,2.71.29.25.58.51.88.74.1.07.15.13.15.22l-.13.23c-.72.7-1.43,1.4-2.13,2.12a.43.43,0,0,1-.31.17l-.25-.07a10.85,10.85,0,0,1-4.87-5m5-6.74a5.09,5.09,0,0,0-.58-2c-.15-.28-.32-.57-.45-.87a1.47,1.47,0,0,1-.16-.64,1.27,1.27,0,0,1,.52-1A3.31,3.31,0,0,1,16,7.05a12.8,12.8,0,0,1,3.07-.64,3,3,0,0,1,.42,0,13.73,13.73,0,0,1,2.63.42,11,11,0,0,0,2.28.24,11.35,11.35,0,0,0,3.84-.68,7.17,7.17,0,0,1,2.45-.56,2.81,2.81,0,0,1,.5,0A8.08,8.08,0,0,1,34.55,7a3.59,3.59,0,0,1,.76.64,2.09,2.09,0,0,1,.45,2.28c-.26.7-.6,1.37-.81,2.08a7.67,7.67,0,0,0-.32,2.15,7.13,7.13,0,0,0,.6,2.83c.12.28.24.56.38.82a2,2,0,0,1,.25.95A2.2,2.2,0,0,1,35.44,20a5.15,5.15,0,0,1-2.63,1.92,6.2,6.2,0,0,1-2.07.39,4.69,4.69,0,0,1-3-1.08c-.28-.21-.57-.39-.9-.62l-.05,0,.05-.05,3-3a4.06,4.06,0,0,0,1.28-2.89,4,4,0,0,0-1.55-3.09l-.19-.15c-.23-.2-.39-.29-.52-.28s-.3.1-.54.34q-4.49,4.47-9,9a.59.59,0,0,1-.37.21.61.61,0,0,1-.36-.19c-1.15-1-2.33-1.94-3.48-2.92-.58-.5-.86-.84-.86-1.26A2.59,2.59,0,0,1,14.78,15a5.05,5.05,0,0,0,.75-2.58v-.28m3.2,10.3c.42-.39.82-.82,1.23-1.23q4.37-4.35,8.71-8.72a.45.45,0,0,1,.3-.17c.11,0,.19.07.29.17a2.94,2.94,0,0,1,.89,2.09h0a2.77,2.77,0,0,1-.79,1.93q-2.88,2.89-5.78,5.78a2.63,2.63,0,0,1-1.21.72l-2.51.73-.19,0a.43.43,0,0,1-.34-.18,6.57,6.57,0,0,0-.59-.59.39.39,0,0,1-.18-.28c0-.1.06-.18.17-.28m-5.2,1.6-.06-.14.13.08,1.27.75,0,0,0,0a2.51,2.51,0,0,1-.45.47l0,0,0,0a4,4,0,0,1-.84-1.22m-1.33,8.8c-.15.18-.28.37-.43.55a1.44,1.44,0,0,1-1.1.56A1.37,1.37,0,0,1,9.3,32.6a1.5,1.5,0,0,1,.44-1.14L17.5,23.7l.24-.14a.34.34,0,0,1,.24.15,6.88,6.88,0,0,0,.54.54l.14.22-.12.24L12.2,32.87m27.65-5.65h-22l.06-.08.82-1.06L19,26h.1c1.19.07,2.38.08,3.57.08l4,0H38.47a.67.67,0,0,1,.5.19c.28.3.58.57.91.89l.09.09Zm.86-16.31V26.56l-.09-.09c-.39-.39-.69-.71-1-1a.47.47,0,0,1-.12-.38h0V3.64l.08.06,1,.76a.33.33,0,0,1,.13.27v6.18"/></svg>