<svg id="Layer_1" data-name="Layer 1" xmlns="http://www.w3.org/2000/svg" viewBox="0 0 50 35"><defs><style>.cls-1{fill:#faa630;}</style></defs><path class="cls-1" d="M11.59,35H38.41A2.59,2.59,0,0,0,41,33.34a26,26,0,0,1,1.42-2.91V30.1a.93.93,0,0,0-.7-.22H38.3l.12-.19.24-.4a4.76,4.76,0,0,0,.88-2.6,4.67,4.67,0,0,0-1-2.72,13.76,13.76,0,0,0-3.49-3.18.76.76,0,0,1-.41-.66l0-.24a4.2,4.2,0,0,0,.06-.69,3.68,3.68,0,0,0-.63-2,5.43,5.43,0,0,0-4.3-2.71,7.69,7.69,0,0,1-1.24-.17c-2.25-.64-4.28-1.64-4.75-4.32a2.41,2.41,0,0,0-.4-1A1.76,1.76,0,0,0,22,8.34a2,2,0,0,0-.71.14.94.94,0,0,0-.68,1,3.2,3.2,0,0,0,.1.67,1.36,1.36,0,0,1,.06.38.69.69,0,0,1-.21.52,1.38,1.38,0,0,1-.57.27c-.7.19-1,.56-1,1.06a1.76,1.76,0,0,0,.22.8A1.93,1.93,0,0,0,21,14.31h.24a3.88,3.88,0,0,1,3.32,2,.77.77,0,0,1,.19.41.25.25,0,0,1-.14.23.93.93,0,0,1-.34.09A11.11,11.11,0,0,0,20,18.44a1.17,1.17,0,0,1-.57.16H19.3c-.67-.08-1.36-.1-2-.19-2.32-.3-4.33-1.15-5.08-3.69a2.45,2.45,0,0,0-.2-.48,1.75,1.75,0,0,0-1.56-1,2,2,0,0,0-.73.15c-.54.23-.73.46-.74.94a3,3,0,0,0,.2,1,1.46,1.46,0,0,1,.07.39.66.66,0,0,1-.58.65,2.09,2.09,0,0,0-1,.75v.74a2.41,2.41,0,0,0,2.25,1.5,3.48,3.48,0,0,0,.55,0,2.19,2.19,0,0,1,.36,0,3.07,3.07,0,0,1,2,.85,10.43,10.43,0,0,1,1.94,2.42.7.7,0,0,1,.12.37,1.08,1.08,0,0,1-.23.56,6.44,6.44,0,0,0-1.19,3.47,5.21,5.21,0,0,0,.11,1,9.05,9.05,0,0,0,.7,1.76l.07.17H8.34a.93.93,0,0,0-.74.22v.33A26,26,0,0,1,9,33.34,2.59,2.59,0,0,0,11.59,35m.84-16.57a.55.55,0,0,1-.49.29,2.11,2.11,0,0,1-.49-.1,3.2,3.2,0,0,0-.81-.09l-.79,0H9.72a1.26,1.26,0,0,1-.85-.28c-.27-.24-.44-.44-.45-.68a.49.49,0,0,1,.18-.36A1.38,1.38,0,0,1,9,17,1.34,1.34,0,0,0,10,15.61v0L9.81,15a2.13,2.13,0,0,1-.14-.46.39.39,0,0,1,.13-.29h0a.74.74,0,0,1,.53-.2,2,2,0,0,1,.35,0,.9.9,0,0,1,.63.55,14.35,14.35,0,0,0,1.27,2.54.75.75,0,0,1,.14.45,1.61,1.61,0,0,1-.3.84m11.22-4.72a.53.53,0,0,1-.44.24,1.69,1.69,0,0,1-.55-.17,4.6,4.6,0,0,0-1.44-.2,1.44,1.44,0,0,1-1.09-.4,1.07,1.07,0,0,1-.37-.66.48.48,0,0,1,.19-.37,1.49,1.49,0,0,1,.49-.24,1.79,1.79,0,0,0,.82-.47,1.18,1.18,0,0,0,.24-.79,4.47,4.47,0,0,0-.08-.74,1.81,1.81,0,0,1-.05-.36.38.38,0,0,1,.16-.36A.81.81,0,0,1,22,9.1H22a1,1,0,0,1,1,.76,11.58,11.58,0,0,0,1,2.52.83.83,0,0,1,.11.42,1.51,1.51,0,0,1-.4.91m.68,1.19a.55.55,0,0,1-.2-.39.77.77,0,0,1,.12-.37c.19-.38.41-.59.7-.59a1.26,1.26,0,0,1,.69.29,9.17,9.17,0,0,0,4.5,1.43A4.64,4.64,0,0,1,34,18.86c0,.12,0,.24,0,.38a1.59,1.59,0,0,1-.11.57l0,.14-.13-.07a30.67,30.67,0,0,0-2.77-1.6A11.93,11.93,0,0,0,26.32,17a.87.87,0,0,1-.8-.49,6.58,6.58,0,0,0-1.19-1.62M14.15,27a5.32,5.32,0,0,1,1-3l.11-.17.1.17a8.17,8.17,0,0,0,1.22,1.84c.18.19.37.37.51.36a.33.33,0,0,0,.24-.12c.12-.11.15-.18.15-.25s-.15-.31-.33-.48a5,5,0,0,1-1.06-1.64,11.94,11.94,0,0,0-2.94-4.24.55.55,0,0,1-.22-.41.67.67,0,0,1,.22-.44.83.83,0,0,0,.2-.31l.08-.22.19-.08a1,1,0,0,1,.38.17,9.61,9.61,0,0,0,4.35,1.07,5.93,5.93,0,0,1,1.72.26,4.25,4.25,0,0,1,3.2,3.38,1.16,1.16,0,0,0,.12.36.25.25,0,0,0,.23.12h.1c.14,0,.21-.07.25-.14A.48.48,0,0,0,24,23v-.2a4.74,4.74,0,0,0-2.11-3.2c-.24-.17-.52-.33-.88-.55l-.18-.12.19-.1a9.65,9.65,0,0,1,3.85-1.05c.25,0,.5,0,.75,0a10.54,10.54,0,0,1,4.69,1.12,30.19,30.19,0,0,1,6,3.9,7.53,7.53,0,0,1,2,2.45,3.5,3.5,0,0,1,.36,1.57,3.68,3.68,0,0,1-1.45,2.95,1,1,0,0,1-.64.17H15.93a1.11,1.11,0,0,1-1-.54A4.13,4.13,0,0,1,14.15,27M8.77,30.91a.26.26,0,0,1,.15-.25.74.74,0,0,1,.32-.05H40.46c.35,0,.53,0,.69.1l.08.18a2,2,0,0,1-.2.56c-.27.58-.55,1.15-.81,1.73a1.76,1.76,0,0,1-1.69,1.08H11.86a2.11,2.11,0,0,1-2.24-1.41,16.49,16.49,0,0,0-.74-1.6.71.71,0,0,1-.11-.35"/><path class="cls-1" d="M30,28.12a6.71,6.71,0,0,0,2,.31h.41a6.32,6.32,0,0,0,2.23-.4,4.93,4.93,0,0,0,1.11-.51,1.15,1.15,0,0,0,.5-1,1.35,1.35,0,0,0-.5-1.08,3.81,3.81,0,0,0-1.13-.61,15.08,15.08,0,0,0-2.72-.56,4.23,4.23,0,0,1-2.35-.92,4.18,4.18,0,0,1-1-2.29.92.92,0,0,0-.11-.31.31.31,0,0,0-.22-.15H28.1c-.16,0-.27.12-.39.32a6.63,6.63,0,0,0-.78,1.91A5.31,5.31,0,0,0,26.8,24,4.2,4.2,0,0,0,30,28.12m-2.14-5.56.12-.28.11.28c.69,1.64,2,2.15,3.52,2.43a17.89,17.89,0,0,1,2.75.56,3.57,3.57,0,0,1,.7.31.77.77,0,0,1,.4.65v0h0a.65.65,0,0,1-.44.55,5.83,5.83,0,0,1-.66.23,6.73,6.73,0,0,1-2.19.38,6.43,6.43,0,0,1-2.31-.43,3.45,3.45,0,0,1-2.3-3.23,4,4,0,0,1,.3-1.49"/><path class="cls-1" d="M15.65,10.54A2.51,2.51,0,0,0,16,11.78c.11.2.23.32.36.31l.19-.05a.36.36,0,0,0,.21-.3.5.5,0,0,0-.1-.28,2,2,0,0,1-.28-1,2.31,2.31,0,0,1,.34-1.13,2.58,2.58,0,0,0,.32-1.27,3.58,3.58,0,0,0-.25-1.26,1.08,1.08,0,0,0-.18-.34.28.28,0,0,0-.22-.12l-.18,0h0c-.19.09-.22.17-.22.3a1.07,1.07,0,0,0,.08.35,2.4,2.4,0,0,1-.16,2.26,2,2,0,0,0-.28,1v.2Z"/><path class="cls-1" d="M35,14.82a2,2,0,0,0,.18.3l.22.12.16,0c.2-.09.24-.17.24-.3a.72.72,0,0,0-.12-.38,1.91,1.91,0,0,1,.05-1.94,2.37,2.37,0,0,0,.35-1.24v-.13h0v-.08a3.11,3.11,0,0,0-.25-1.2,1.1,1.1,0,0,0-.17-.31l-.21-.11-.16,0h0c-.2.09-.23.17-.24.31a.93.93,0,0,0,.08.34,2.36,2.36,0,0,1,.2,1A2.79,2.79,0,0,1,35,12.51a2.16,2.16,0,0,0-.27,1.05A2.85,2.85,0,0,0,35,14.82"/><path class="cls-1" d="M38.47,20.57a1,1,0,0,0,.18.28l.21.09.19,0c.17-.09.21-.17.21-.28a.73.73,0,0,0-.12-.36,2,2,0,0,1-.25-1,2.12,2.12,0,0,1,.31-1A2.46,2.46,0,0,0,39.54,17v-.15h0V16.8a3.28,3.28,0,0,0-.24-1.14.81.81,0,0,0-.17-.32.24.24,0,0,0-.22-.11l-.14,0h0c-.22.07-.25.16-.26.3a.88.88,0,0,0,.08.32,2.44,2.44,0,0,1,.2,1,3,3,0,0,1-.4,1.42,2.11,2.11,0,0,0-.26,1,2.91,2.91,0,0,0,.35,1.3"/><path class="cls-1" d="M11.85,7.6a1.2,1.2,0,0,0,.2.3l.22.11.2,0c.16-.1.19-.17.2-.28a.92.92,0,0,0-.12-.38,1.93,1.93,0,0,1-.27-1,1.78,1.78,0,0,1,.24-.86A3,3,0,0,0,13,4a3.7,3.7,0,0,0-.48-1.72h-.4a.92.92,0,0,0-.15.45A.54.54,0,0,0,12,3a2.39,2.39,0,0,1,.21,1,2.74,2.74,0,0,1-.36,1.3,2.21,2.21,0,0,0-.3,1.11,3,3,0,0,0,.32,1.26"/></svg>