<svg xmlns="http://www.w3.org/2000/svg" viewBox="0 0 50 35"><defs><style>.cls-1{fill:#fea72d;}.cls-2{fill:none;}</style></defs><title>Asset 8</title><g id="Layer_2" data-name="Layer 2"><g id="Layer_1-2" data-name="Layer 1"><path class="cls-1" d="M27.69,18.89c-4.27,0-8.55,0-12.82,0A5.6,5.6,0,0,0,13.69,30a5.49,5.49,0,0,0,5.47-1.89c.06-.06.11-.13.17-.2s.35-.32.58-.14.17.4,0,.61a6.37,6.37,0,1,1-5-10.22q12.24,0,24.48,0h1.47c.28,0,.61,0,.61.4s-.34.38-.62.38H27.69"/><path class="cls-1" d="M31.89,15.3c-2.93,0-5.85,0-8.77,0a4.68,4.68,0,1,1,3.56-7.7c.19.23.45.49.11.76s-.5,0-.68-.26a3.92,3.92,0,1,0-3.26,6.42c.87,0,1.75,0,2.63,0H40.76c.3,0,.72-.1.72.37s-.42.39-.72.39H31.89"/><path class="cls-1" d="M35.25,22.47h-5.2A3.92,3.92,0,1,0,32.84,29c.22-.23.43-.71.82-.33s-.08.65-.29.86a4.68,4.68,0,0,1-8.11-3A4.67,4.67,0,0,1,30,21.7c3.62,0,7.25,0,10.87,0,.28,0,.62,0,.62.4s-.34.38-.62.38H35.25"/><path class="cls-1" d="M35.49,8.77A3.24,3.24,0,0,1,32.19,12a3.27,3.27,0,1,1,.08-6.53,3.25,3.25,0,0,1,3.22,3.3m-.76,0a2.51,2.51,0,1,0-2.54,2.47,2.52,2.52,0,0,0,2.54-2.47"/><path class="cls-1" d="M15,12.59A3.27,3.27,0,1,1,11.75,9.3,3.25,3.25,0,0,1,15,12.59m-3.25-2.52a2.52,2.52,0,1,0,2.51,2.55,2.53,2.53,0,0,0-2.51-2.55"/><path class="cls-1" d="M15.38,7.56a2.78,2.78,0,1,1,2.86-2.73,2.79,2.79,0,0,1-2.86,2.73M17.47,4.8a2,2,0,1,0-2,2,2,2,0,0,0,2-2"/><path class="cls-1" d="M38.75,30.24a2.78,2.78,0,1,1,2.75-2.92,2.76,2.76,0,0,1-2.75,2.92m0-.74a2,2,0,0,0,2-2,2,2,0,1,0-4.07,0,2.05,2.05,0,0,0,2,2"/><path class="cls-1" d="M17.12,26.16a2.78,2.78,0,1,1,2.75-2.77,2.75,2.75,0,0,1-2.75,2.77M17,25.42a2,2,0,1,0-2-2.11,2.06,2.06,0,0,0,2,2.11"/><path class="cls-1" d="M19.54,32.2a2.73,2.73,0,0,1,2.85-2.77A2.79,2.79,0,0,1,22.3,35a2.72,2.72,0,0,1-2.76-2.8m4.78.07a2,2,0,0,0-2-2.09,2,2,0,0,0-2,1.92,2.08,2.08,0,0,0,2,2.16,2,2,0,0,0,2-2"/><path class="cls-1" d="M36.14,4.65a2.68,2.68,0,0,1,5.36,0,2.68,2.68,0,1,1-5.36,0m2.68-1.91a2,2,0,0,0-1.94,2,1.94,1.94,0,1,0,1.94-1.95"/><rect class="cls-2" width="50" height="35"/></g></g></svg>