<svg id="Layer_1" data-name="Layer 1" xmlns="http://www.w3.org/2000/svg" viewBox="0 0 50 35"><defs><style>.cls-1{fill:#faa630;}</style></defs><path class="cls-1" d="M15.45,18.81l-.74-.68c-.2-.19-.42-.4-.19-.67s.52-.08.74.12a1.09,1.09,0,0,1,.19.18c.46.63.92.61,1.62.25a1.16,1.16,0,0,0,.7-1.65c-.11-.3-.23-.69.24-.78s.51.34.52.63c0,.79.35.8,1,.53a3.46,3.46,0,0,1,1.63-.25c.74.05,2.07-1.33,2-2.08a.68.68,0,0,0-.12-.22c-1.81,1.08-3.46.8-4.31-.73-.51-.92-.42-1.11.61-1.33a2.24,2.24,0,0,0,1.13-.32c-.2-.4-.38-.83-.62-1.22-.36-.59-.09-.82.46-1a2.67,2.67,0,0,1,3.44,3c0,.29-.17.6-.05.86A2.26,2.26,0,0,1,23,16.27c-.38.36-.41.66.15.87.16.06.27.23.43.29.35.13.59.87.89.53s1-1,.71-1.77c-.16-.45-.31-.89-.44-1.33-.07-.24-.19-.56.16-.68s.44.12.56.4c.54,1.27.92,2.53-.23,3.69-.74.74-.08,1.46,0,2.19a.25.25,0,0,0,.16.16,3.79,3.79,0,0,0,2-1l.6-1.46c.1-.25.28-.38.54-.27s.24.33.17.53c-.45,1.17-.68,2.52-2.31,2.7a3.25,3.25,0,0,0-.82.3c-.36.13-.32.46-.32.74s.32.26.52.26H31.9c.16,0,.47.15.45-.2s-.27-.26-.48-.29l-2.68-.35c-.3,0-.64,0-.72-.38s.27-.47.51-.62a7.69,7.69,0,0,0,2.28-1.43c.54-.68,0-1.73.16-2.62s.17-1.68.35-2.51c.69-3.2,2.92-4.92,5.84-5.93a13,13,0,0,1,3.5-.75c.34,0,.63,0,.75.41a13,13,0,0,1,.44,7.65,7.81,7.81,0,0,1-3.74,4.45,13.88,13.88,0,0,1-2.9,1.41.74.74,0,0,0-.56.86c0,.52.48.29.74.3.81,0,1.63,0,2.45,0,.62,0,.82.2.79.81a11.25,11.25,0,0,1-4.63,9c-5.24,3.94-14.05,3.67-19-.59a11.29,11.29,0,0,1-3.9-8.13c-.06-.81.13-1.23,1-1.1.17,0,.55.16.52-.22s-.32-.12-.5-.12a3.58,3.58,0,0,0-.87.05,1.58,1.58,0,0,1-1.81-.71,2.47,2.47,0,0,0-1.06-.73,2.7,2.7,0,0,1-.69-4.4c.52-.49.95-.55,1.28.19l0,.07c.65,1.09.65,1.09,1.51.18.64-.67.89-.65,1.36.14a2.71,2.71,0,0,1-1.15,3.86c-.17.09-.56,0-.45.38s.34.31.59.28l1.83-.18a.44.44,0,0,0,.38-.3,4.72,4.72,0,0,1,1.92-2.07m9.86,6.71c-4,0-7.93,0-11.9,0-.72,0-.83.2-.62.84A10.33,10.33,0,0,0,17.19,32,15.64,15.64,0,0,0,29.5,33.69a10.87,10.87,0,0,0,8.32-7.35c.21-.63.13-.84-.61-.84-4,0-7.93,0-11.9,0m4.88-4.67c.21,0,.38.11.54.13,1,.14,2.13,0,2.64,1.24.11.29.46.19.71.16s.26-.29.26-.47c0-.84.43-1.2,1.19-1.45a12.76,12.76,0,0,0,3.38-1.79,6.94,6.94,0,0,0,2.63-3.4c.2-.59.13-.87-.49-1.1A15.41,15.41,0,0,1,36,11c-1-.9-1-.91-1.92.12a4.45,4.45,0,0,0-.38.48,8.34,8.34,0,0,0-1.43,5.73c.14,1.64-.25,2.73-1.83,3.3-.07,0-.11.11-.21.22m-4.87,2.29c-4.06,0-8.11,0-12.17,0-.33,0-.93-.27-.84.48,0,.54-.09,1.14.87,1.14q12.12-.06,24.24,0c.95,0,.82-.58.89-1.12.09-.75-.49-.5-.83-.5-4,0-8.11,0-12.16,0m-6.23-.74h4.65c.36,0,.7,0,.76-.48a4,4,0,0,0-1.38-3.85,3.41,3.41,0,0,0-3.93-.37c-1.22.64-2.42,1.3-3.61,2A3.43,3.43,0,0,0,14,21.73c-.14.44-.08.69.5.68,1.52,0,3,0,4.55,0m22.74-8.75a13.52,13.52,0,0,0-.49-5c-.11-.39-.24-.6-.71-.52a17.53,17.53,0,0,0-4.24,1.32c-.58.26-.52.43-.11.82a15.8,15.8,0,0,0,5.55,3.4M11.61,17.19c-.39.4-.74.71-1,1.06s-.74.46-1.07-.1a4.19,4.19,0,0,0-.85-1.29,1.9,1.9,0,0,0-.07,2.69,1.92,1.92,0,0,0,3-2.36m9.38-3a2,2,0,0,0,2-2,2,2,0,0,0-1.84-1.89c-.42,0-.53.14-.3.52a5.44,5.44,0,0,1,.27.54c.58,1.15.58,1.14-.7,1.41-.33.07-.89,0-.93.3s.46.7.85.9a4.82,4.82,0,0,0,.7.22"/><path class="cls-1" d="M33.66,7.23a4.79,4.79,0,0,1-1.09,3.29,26.64,26.64,0,0,1-1.9,2.06,4,4,0,0,0-1.44,2.87c0,.27-.05.62-.38.73s-.47-.17-.66-.34c-.5-.45-1-.9-1.48-1.37s-.49-.87.19-.93A3.22,3.22,0,0,0,30,10.77,11.29,11.29,0,0,1,30.74,9a1.34,1.34,0,0,0-.49-1.82,1.3,1.3,0,0,0-1.79.34c-1.61,1.79-3.22,2.08-5.29.94a1.12,1.12,0,0,0-.82-.09,1.61,1.61,0,0,1-1.86-.82,1.68,1.68,0,0,1,.22-2c1-1.09,2-2.15,3-3.23.21-.22.45-.46.74-.18s0,.52-.19.73c-.91,1-1.81,2-2.73,3-.48.51-.72,1.06-.13,1.6s1.11.26,1.58-.25c.89-1,1.75-2,2.7-2.88a4.69,4.69,0,0,1,7.89,2.05,6.71,6.71,0,0,1,.13.89M28,5.57A4,4,0,0,0,28,5c-.06-.35.18-.88-.19-1s-.76.2-1.08.45a31.88,31.88,0,0,0-3.05,3.1c-.35.34,0,.45.23.55A3.08,3.08,0,0,0,27,7.92a2,2,0,0,0,1-2.35m1.44-1.93c-.61-.1-.79.16-.71.73,0,.32,0,.64,0,1s-.11.86.17.86c.58,0,1.25.38,1.74,0s1.17-.81,1.12-1.35-.86-.79-1.42-1a5.75,5.75,0,0,0-.93-.23m3,1.94c-.71.7-1.56,1.24-.77,2.32a.74.74,0,0,1,.06.34c0,.26-.13.62.37.61s.63-.08.74-.54a4,4,0,0,0-.4-2.73m-1.85,5.87c.51-.55,1.23-.94,1.57-1.73-1.4-.16-1.1,1.12-1.57,1.73m-2,3.56c0-.41.37-.81.09-1s-.66,0-.94.24a2.18,2.18,0,0,0,.85.79"/><path class="cls-1" d="M10.66,6.75a8.29,8.29,0,0,1,.52-2.6c.16-.51.47-.57.94-.44,3.37.91,4.82,3.42,3.83,6.75a1.51,1.51,0,0,0,.4,1.77c.51.48,1,1,1.44,1.53.17.17.34.35.13.6s-.46.13-.67-.06a4.31,4.31,0,0,1-.37-.37A11.79,11.79,0,0,0,13,10.73a4,4,0,0,1-2.29-4m4.41,3.8c.89-2.28.39-4.08-1.37-5.24s-2-.91-2.28,1.07a3.61,3.61,0,0,0,2.43,3.91c-.49-.94-1-1.82-1.41-2.72-.13-.27-.39-.62.08-.81s.48.21.6.47a20,20,0,0,0,2,3.32"/><path class="cls-1" d="M11.87,12.51A1.49,1.49,0,0,1,13.4,14a1.47,1.47,0,0,1-1.47,1.51A1.46,1.46,0,0,1,10.41,14a1.47,1.47,0,0,1,1.46-1.52M12.6,14a.66.66,0,0,0-.7-.73.64.64,0,0,0-.71.7.71.71,0,0,0,1.41,0"/><path class="cls-1" d="M18.36,2.92A1.43,1.43,0,0,1,19.83,4.4a1.48,1.48,0,0,1-1.48,1.49,1.52,1.52,0,0,1-1.5-1.5,1.49,1.49,0,0,1,1.51-1.47m0,.75a.68.68,0,0,0-.67.75.64.64,0,0,0,.74.68.66.66,0,0,0,.68-.74.7.7,0,0,0-.75-.69"/><path class="cls-1" d="M36.68,3.41A1.53,1.53,0,0,1,38.19,4.9a1.54,1.54,0,0,1-1.51,1.51,1.5,1.5,0,0,1-1.49-1.5,1.48,1.48,0,0,1,1.49-1.5m.74,1.45c-.11-.38-.29-.69-.77-.66a.67.67,0,0,0-.7.73.67.67,0,0,0,.76.68c.46,0,.65-.31.71-.75"/><path class="cls-1" d="M16.53,28c.31,0,.42.16.57.3A12.28,12.28,0,0,0,20,30.52c.24.13.6.28.42.64s-.54.18-.83,0a12.34,12.34,0,0,1-3.1-2.37c-.16-.17-.32-.36-.18-.61.05-.09.17-.14.21-.17"/><path class="cls-1" d="M16.07,27.13c0,.28-.17.44-.38.4-.47-.08-.57-.52-.72-.88a.3.3,0,0,1,.32-.4c.54,0,.57.56.78.88"/><path class="cls-1" d="M33.33,16.74a10.09,10.09,0,0,1,1.18-4.25c.14-.25.29-.57.66-.37s.14.49,0,.74a9.15,9.15,0,0,0-1.06,3.83c0,.29,0,.73-.48.66s-.31-.42-.31-.61"/><path class="cls-1" d="M20.39,18.37a3.73,3.73,0,0,1,2.95,1.74c.14.22.31.51,0,.7s-.43-.12-.59-.32a2.74,2.74,0,0,0-3.48-1.1c-.23.06-.48.16-.6-.13s.06-.47.33-.59a3.28,3.28,0,0,1,1.35-.3"/><path class="cls-1" d="M39,10.2c0,.34-.22.55-.56.54a.51.51,0,0,1-.56-.53.52.52,0,0,1,.6-.58c.34,0,.5.24.52.57"/></svg>