<svg xmlns="http://www.w3.org/2000/svg" viewBox="0 0 50 35"><defs><style>.cls-1{fill:#fea72d;}.cls-2{fill:none;}</style></defs><title>Asset 9</title><g id="Layer_2" data-name="Layer 2"><g id="Layer_1-2" data-name="Layer 1"><path class="cls-1" d="M40.26,33.46a.9.9,0,0,0-.58-.79,4.3,4.3,0,0,0-1.19-.41,1.38,1.38,0,0,1-.6-.18L37.77,32l0,0,.07-.06.45-.41a2.56,2.56,0,0,0,0-3.79,4.45,4.45,0,0,0-1.91-1.06,5.78,5.78,0,0,0-1.57-.2h-.48l0-.08.06-.11.31-.57a2.18,2.18,0,0,0,.29-1v-.05a.7.7,0,0,0-.71-.71h-.05a1.49,1.49,0,0,0-.54.11,6.34,6.34,0,0,0-1.7,1c-.5.38-1,.79-1.46,1.19l-.16.12v-.08l0-.11-.07-.26h0a12.15,12.15,0,0,0-.22-1.79,4.06,4.06,0,0,0-.57-1.65.81.81,0,0,0-.65-.42.9.9,0,0,0-.62.31l-.07.13-.16.25,0-.11,0-.17a11.86,11.86,0,0,0-3.41-5.88l-.11-.1.05,0,.07-.05h0l.23-.08H25a2.62,2.62,0,0,0,2.67-2.69c0-.56,0-1.12,0-1.68s0-1.07,0-1.61a2.61,2.61,0,0,0-1.69-2.39,2.41,2.41,0,0,0-.86-.18h-.32a.44.44,0,0,1-.34-.13.47.47,0,0,1-.09-.33h0V7.19c0-.16,0-.31,0-.47s0-.44,0-.66a.56.56,0,0,0-.13-.39.52.52,0,0,0-.38-.12h-1.4l0-.07,0-.09c.23-.81.46-1.59.68-2.37a1.48,1.48,0,0,0,.06-.37.32.32,0,0,0-.13-.3,1,1,0,0,0-.51-.1H15.4a1.12,1.12,0,0,0-.56.1c-.1.06-.13.13-.14.29a1.59,1.59,0,0,0,.08.42l.65,2.3,0,.12-.05,0h-.07l-.1,0H14.12a.57.57,0,0,0-.41.12.56.56,0,0,0-.12.4c0,.24,0,.47,0,.7,0,.38,0,.75,0,1.12s0,.51.11.58h0c.07.07.23.12.56.12h0a.39.39,0,0,1,.32.1.44.44,0,0,1,.09.31c0,1,0,2,0,3s0,2.14,0,3.21a.56.56,0,0,1-.29.51,9.3,9.3,0,0,0-2.07,1.89,11.64,11.64,0,0,0-2.54,6.51c0,.37,0,.74,0,1.11a12.06,12.06,0,0,0,1.65,6.13,2.48,2.48,0,0,0,.82.91.54.54,0,0,1,.28.52v1.51a.76.76,0,0,0,.12.51c.07.08.23.12.51.12h6.39l3.23,0c.74,0,1.47,0,2.2,0h.31a4.87,4.87,0,0,0,2.93-.91l.05,0v0l.17-.07h0l.21.08h0a5.05,5.05,0,0,0,2.91.88,7.31,7.31,0,0,0,.8,0,2.58,2.58,0,0,1,.4,0h.11c.68.06,1.37.09,2.05.09a19,19,0,0,0,2.38-.14,7.06,7.06,0,0,0,2.37-.59c.34-.19.58-.4.59-.78m-5.34-6.18a4,4,0,0,1,2.6.85,1.76,1.76,0,0,1,0,2.93,3.77,3.77,0,0,1-1.32.68h0l-.13,0h0a.22.22,0,0,1-.2-.21h0c-.31-1.69-1.51-2.39-3-2.81h0l-.1,0-.13-.08,0,0,.06-.07.8-.93a.71.71,0,0,1,.31-.16,5.09,5.09,0,0,1,1.16-.13m-5,.84h0a17,17,0,0,1,3.48-3A.87.87,0,0,1,34,25h.2l0,.08-.06.11a8.67,8.67,0,0,1-1.18,1.79c-.4.49-.82.94-1.24,1.39a1,1,0,0,1-.73.37,4.46,4.46,0,0,0-.59.09h-.08a.32.32,0,0,1-.25-.13l-.09-.14h0l-.06-.14v0a.29.29,0,0,1,.12-.22M28.17,27v-.1h0a15.37,15.37,0,0,1,.42-3.29.65.65,0,0,1,.2-.39l.14-.13,0,.07,0,.11a9.39,9.39,0,0,1,.45,2.28c0,.49.06,1,.08,1.48h0v0a.62.62,0,0,1-.14.46.52.52,0,0,1-.4.16h0l-.25,0h0a.58.58,0,0,1-.54-.62v0ZM23.88,8.59v0H25a1.76,1.76,0,0,1,1.74,1.74c0,.21,0,.43,0,.65s0,.69,0,1v.18c0,.28,0,.56,0,.84s0,.4,0,.59a1.77,1.77,0,0,1-1.8,1.8h-1.4a.35.35,0,0,1-.26-.08v0l-.07-.22V15c0-.13,0-.28,0-.44a.64.64,0,0,1,.08-.33.38.38,0,0,1,.35-.17c.14,0,.27,0,.38,0h.07a1.53,1.53,0,0,0,1.34-1.46c0-.18,0-.36,0-.54v-.59a1.53,1.53,0,0,0-1.56-1.55c-.25,0-.41,0-.54-.1h0c-.12-.13-.1-.28-.1-.54s0-.43.09-.57h0c.13-.13.29-.11.55-.12m-.65,4V11.13a.31.31,0,0,1,.09-.26h0l.21-.07h.16a.82.82,0,0,1,.68.23,1.11,1.11,0,0,1,.19.73v.76a.86.86,0,0,1-.86.8.71.71,0,0,1-.34-.08h0a.26.26,0,0,1-.14-.24h0v-.37M15.75,3.3l.09-.15v0h0l.14,0H21.8l.23,0v0l.12.18v0l0,.16h0c-.18.56-.33,1.13-.48,1.7h0a.39.39,0,0,1-.4.33H16.68l-.21,0h0a.34.34,0,0,1-.16-.22c-.16-.61-.33-1.21-.51-1.81h0l0-.14ZM14.52,7.64l0,0,0,0a.49.49,0,0,1-.09-.34c0-.38,0-.6.13-.77h0c.16-.15.38-.13.76-.13H23a.64.64,0,0,1,.36.08.41.41,0,0,1,.14.35v0h0c0,.38,0,.59-.14.75h0c-.16.15-.37.13-.75.14H14.87a.43.43,0,0,1-.35-.11m2.81,1.27h0V8.78l.11-.16h0l.13,0h2.69l.21.05v0l.08.17v0l0,.17h0c-.11.39-.16.62-.34.77h0c-.18.15-.41.14-.81.14H17.86a.27.27,0,0,1-.29-.21h0l-.24-.82M12,19.75l0-.11a9,9,0,0,1,3.16-3.38.62.62,0,0,0,.35-.61c0-1,0-2,0-3,0-1.22,0-2.43,0-3.64l0-.2v0l.06-.17h0l.19-.06h0l.24,0h0a.4.4,0,0,1,.39.36c.1.48.26.94.4,1.41a.77.77,0,0,0,.18.36.65.65,0,0,0,.38.08h3.05a.65.65,0,0,0,.38-.08.68.68,0,0,0,.19-.35c.14-.49.29-1,.41-1.45h0a.37.37,0,0,1,.36-.33h0l.23,0h.07l.19.07v0l.05.14v3.69c0,1,0,2,0,3a.75.75,0,0,0,.41.73,8.92,8.92,0,0,1,3.1,3.34l.08.18h-14ZM12.11,31a11.47,11.47,0,0,1-1.53-5.66A12.58,12.58,0,0,1,11.37,21h0a.45.45,0,0,1,.44-.31H26.08a.45.45,0,0,1,.47.33h0a11.83,11.83,0,0,1,.77,4.21,12.74,12.74,0,0,1-.15,1.93.52.52,0,0,1-.44.48,4.51,4.51,0,0,0-2,1.09.5.5,0,0,1-.34.18.57.57,0,0,1-.37-.22,16.66,16.66,0,0,0-3-2.51A3.94,3.94,0,0,0,20,25.66a1.53,1.53,0,0,0-.41-.07.72.72,0,0,0-.53.22.74.74,0,0,0-.22.53,1.53,1.53,0,0,0,.07.4,5.46,5.46,0,0,0,.91,1.67c.29.4.61.79.94,1.22l.14.18h-.22a10.86,10.86,0,0,0-2,.38,3.26,3.26,0,0,0-.61.25c-.43.23-.58.43-.59.75a1.44,1.44,0,0,0,.13.54l.07.17H13.8a1.81,1.81,0,0,1-1.69-1m11-.37h.17l0,.07,0,.09c-.09.35-.18.67-.25,1v0l-.11.16h0l-.15,0h0a13.71,13.71,0,0,1-3.86-.48,1,1,0,0,1-.18-.11l-.23-.14.1,0,.16-.05a14.11,14.11,0,0,1,4.44-.53m.27,3.54H13.71a.39.39,0,0,1-.28-.09.37.37,0,0,1-.1-.29V33.5c0-.29,0-.5.18-.63h0a1.56,1.56,0,0,1,.76-.1h8.2a.59.59,0,0,1,.35.08.44.44,0,0,1,.18.33,2.82,2.82,0,0,0,.33.76l.1.18Zm-.61-4.39h-.65l-.19-.1h0a13.15,13.15,0,0,1-2-2.69h0a1.29,1.29,0,0,1-.06-.22l-.05-.25.1,0,.14.08a15.4,15.4,0,0,1,3.71,3l.22.21H22.73m2.88,4.43h-.1a1.8,1.8,0,0,1-1.27-.49,1.77,1.77,0,0,1-.51-1.31v-.09a4.46,4.46,0,0,1,3.59-3.9,2.75,2.75,0,0,1,.4,0,1.83,1.83,0,0,1,1.34.48,1.81,1.81,0,0,1,.48,1.33,2.75,2.75,0,0,1,0,.4,4.48,4.48,0,0,1-3.92,3.6m8.53-.82a4.4,4.4,0,0,1-2.59.78,4.15,4.15,0,0,1-2.17-.56h0l-.12-.08,0,0-.08-.16v0l.08-.18v0a4.55,4.55,0,0,0,1.15-2.91,2.44,2.44,0,0,0,0-.27h0a.29.29,0,0,1,.12-.26h0l.18-.05h0a5.91,5.91,0,0,1,.76-.08h.12a4.24,4.24,0,0,1,2.52.77,1.8,1.8,0,0,1,0,3.09m4.93.25-.07,0a13.91,13.91,0,0,1-4.09.51H34.6l.09-.08.13-.13a3.9,3.9,0,0,0,.75-.95v0l0,0h0l.2-.11h0A11.33,11.33,0,0,1,39,33.3l.06,0v.07l0,.07,0,.1Z"/><rect class="cls-2" width="50" height="35"/></g></g></svg>