<svg id="Layer_1" data-name="Layer 1" xmlns="http://www.w3.org/2000/svg" viewBox="0 0 50 35"><defs><style>.cls-1{fill:#faa630;}</style></defs><path class="cls-1" d="M36.39,29.22c.33-1.53.67-3.06,1-4.59a.6.6,0,0,1,.26-.39,6.15,6.15,0,0,0,2.25-2.47,6.81,6.81,0,0,0,.75-3,6.3,6.3,0,0,0-.45-2.33,9,9,0,0,0-3.12-3.9,12.4,12.4,0,0,0-4.23-2l-.18-.1-.08-.18A9.39,9.39,0,0,0,31.4,7.1a10.91,10.91,0,0,0-4.77-4.3,4.64,4.64,0,0,0-1.92-.55H24.4v0h0v.53h0v.1a2.25,2.25,0,0,1-1,1.88c-.51.39-1.06.7-1.55,1.07a4,4,0,0,0-1.4,1.69,5.22,5.22,0,0,0-.25.94l-.07.21a.4.4,0,0,1-.25.13,5.4,5.4,0,0,0-1.68.48,5,5,0,0,0-3,3.56.33.33,0,0,1-.15.22l-.17,0a6.09,6.09,0,0,0-.85.17,6.2,6.2,0,0,0-4.18,3.51,6.29,6.29,0,0,0-.56,2.7,8.06,8.06,0,0,0,0,.85,7.12,7.12,0,0,0,3.33,5.5.53.53,0,0,1,.25.37l.3,1.38c.36,1.65.71,3.31,1.08,5a4.36,4.36,0,0,0,.31,1.13A2,2,0,0,0,16.47,35h17a2,2,0,0,0,2-1.59c.32-1.39.62-2.79.93-4.18M11.3,22.77a6.05,6.05,0,0,1-.73-2.45,6.28,6.28,0,0,1,0-.75A5.57,5.57,0,0,1,11,17.34a4.91,4.91,0,0,1,3.35-2.89c.23-.06.46-.1.68-.14h.08l.21.12,0,.15a5.39,5.39,0,0,0,.56,1.56,5.18,5.18,0,0,0,2.21,2.09,12.89,12.89,0,0,0,3.69,1.26A27,27,0,0,0,27,20h.81a.62.62,0,0,0,.64-.59v0a.63.63,0,0,0-.67-.58h-.05c-.27,0-.53,0-.79,0-.55,0-1.09,0-1.64-.06a19.26,19.26,0,0,1-5.2-.92,7.19,7.19,0,0,1-2.75-1.56,3.5,3.5,0,0,1-1.09-2.5,3.25,3.25,0,0,1,.92-2.24A4.84,4.84,0,0,1,20.84,9.9H21a.67.67,0,0,0,.21,0l0-.05v-.4A3.22,3.22,0,0,1,21.55,8a3.57,3.57,0,0,1,1.27-1.29,15.68,15.68,0,0,0,1.59-1.14A3.16,3.16,0,0,0,25.36,4h0l.06-.14.16-.08.16,0a9.86,9.86,0,0,1,5,4.44A7.69,7.69,0,0,1,31.58,11c0,.22.05.31.07.32s.09.06.31.1a10.77,10.77,0,0,1,3.54,1.41,9.17,9.17,0,0,1,3.34,3.46,5.14,5.14,0,0,1,.61,2.45,5.43,5.43,0,0,1,0,.57,5.23,5.23,0,0,1-.83,2.47A3.81,3.81,0,0,1,37.27,23l-.15.08,0-.16,0-.16h0c0-.49-.31-.73-.71-1a2.52,2.52,0,0,0-1.27-.32,4.18,4.18,0,0,0-.91.11A7,7,0,0,0,31.47,23a23.57,23.57,0,0,1-2.65,1.84,13.71,13.71,0,0,1-4.34,1.53,20,20,0,0,1-3.7.32l-1,0a13.83,13.83,0,0,1-5.23-1.09,6.67,6.67,0,0,1-3.22-2.76m23.55,7.88-.54,2.43a.85.85,0,0,1-.32.55,1,1,0,0,1-.63.18H16.73a1,1,0,0,1-1.1-.91c-.37-1.7-.74-3.39-1.12-5.09-.06-.28-.12-.55-.18-.86l-.05-.22.21.08a14,14,0,0,0,1.79.54,11.39,11.39,0,0,0,1.14.21.41.41,0,0,1,.26.11.42.42,0,0,1,.12.25c.24,1.06.49,2.12.74,3.18a.56.56,0,0,0,.56.46l.18,0a.58.58,0,0,0,.43-.57l0-.15c-.21-.9-.42-1.8-.64-2.7L19,28l.07-.17.17,0h.07a10.84,10.84,0,0,0,1.13.06h.58l0,0,.16.13V28c.1.92.21,1.83.31,2.75,0,.31.06.54.3.69a.6.6,0,0,0,.32.1.64.64,0,0,0,.31-.09.54.54,0,0,0,.29-.48v-.07c-.11-1-.22-1.93-.35-2.9h0V28l.08-.18.17-.05a13,13,0,0,0,1.54-.19h.1l.2.12,0,.18c.05,1.06.09,2.12.14,3.18a.59.59,0,0,0,.58.56h0a.6.6,0,0,0,.58-.64c0-1-.08-2-.11-3a3.27,3.27,0,0,1,0-.35l.05-.24a.4.4,0,0,1,.29-.18l.26-.05c.48-.14.94-.32,1.42-.5h0l.12,0h.15v.14L28,28.05c-.06,1-.13,1.93-.19,2.89v0h0v0a.58.58,0,0,0,.55.58h0a.59.59,0,0,0,.58-.53l.24-3.33L29.3,26V26l.1-.18h0a17.64,17.64,0,0,0,2.18-1.46l.24-.17,0,.29c-.06.46-.12.88-.17,1.31l-.42,3c-.1.71-.19,1.43-.3,2.15h0V31a.6.6,0,0,0,.48.6h.12a.57.57,0,0,0,.58-.51c.08-.54.15-1.09.22-1.63l.42-3.05c.07-.5.14-1,.2-1.51v-.17a.6.6,0,0,0-.15-.45.78.78,0,0,0-.51-.19l-.28,0,.21-.19a4.74,4.74,0,0,1,1.15-.75,4.25,4.25,0,0,1,1.76-.45,1.08,1.08,0,0,1,.77.23,1,1,0,0,1,.27.75v.14a10.69,10.69,0,0,1-.1,1.15c-.09.75-.3,1.46-.45,2.18-.25,1.17-.52,2.34-.77,3.51"/></svg>