<svg xmlns="http://www.w3.org/2000/svg" viewBox="0 0 50 35"><defs><style>.cls-1{fill:#fea72d;}.cls-2{fill:none;}</style></defs><title>Asset 10</title><g id="Layer_2" data-name="Layer 2"><g id="Layer_1-2" data-name="Layer 1"><path class="cls-1" d="M35,2.53a3.74,3.74,0,0,0-1.63-.28H10.79a7,7,0,0,0-.91.06A2.87,2.87,0,0,0,7.53,4.42a2.81,2.81,0,0,0-.07.65,2.63,2.63,0,0,0,1.2,2.27,2.32,2.32,0,0,1,1.17,2.2v.05c0,1.43,0,2.87,0,4.31,0,1.73,0,3.46,0,5.19a1.62,1.62,0,0,0,1.68,1.75h.67l1.52,0a.69.69,0,0,0,.42-.13.33.33,0,0,0,.13-.28v0a.41.41,0,0,0-.17-.33.82.82,0,0,0-.39-.1h-2a1,1,0,0,1-.77-.23,1.23,1.23,0,0,1-.19-.84c0-1.86,0-3.72,0-5.59,0-1.31,0-2.61,0-3.92A2.89,2.89,0,0,0,9.26,6.68a1.73,1.73,0,0,1-.9-1.56c0-.12,0-.23,0-.34a1.83,1.83,0,0,1,1.29-1.5,3.06,3.06,0,0,1,1.07-.14H32.83c.35,0,.71,0,1.07,0a2,2,0,0,1,1.82,1.46,1.7,1.7,0,0,1,.05.44,2,2,0,0,1-1,1.68,2.69,2.69,0,0,0-1.3,1.9,4.46,4.46,0,0,0-.06.82c0,.32,0,.64,0,1s.15.35.4.37h0a.4.4,0,0,0,.42-.38,2.61,2.61,0,0,0,0-.4c0-.12,0-.24,0-.37a2.44,2.44,0,0,1,0-.27,2.28,2.28,0,0,1,1.19-2.06,2.45,2.45,0,0,0,1.17-2.19c0-.13,0-.27,0-.41A2.66,2.66,0,0,0,35,2.53"/><path class="cls-1" d="M22.5,14.43c0-.83,0-1.67,0-2.51s0-1.95,0-2.92a2.54,2.54,0,0,0-1.33-2.25,1.91,1.91,0,0,1-1-1.61A.61.61,0,0,0,20,4.76a.45.45,0,0,0-.35-.13.35.35,0,0,0-.3.13.57.57,0,0,0-.11.38V5.2h0a2.76,2.76,0,0,0,1.46,2.34l.19.1a.3.3,0,0,1,.17.26V8h0L21,8.15l-.15,0-.25,0-5.26,0-2.6,0a.53.53,0,0,0-.36.11.39.39,0,0,0-.14.32h0v0a.36.36,0,0,0,.13.29.71.71,0,0,0,.39.14h4.1V9h4.06a2.24,2.24,0,0,1,.4,0,.34.34,0,0,1,.27.16l.06.2c0,.1,0,.22,0,.38v2c0,.45,0,.91,0,1.36s0,.82,0,1.23.19.5.42.5h0a.45.45,0,0,0,.33-.15.53.53,0,0,0,.1-.36"/><path class="cls-1" d="M17.21,11.41H19.6c.36,0,.53-.18.55-.43s-.18-.44-.56-.45h-4.5a.65.65,0,0,0-.39.1.43.43,0,0,0-.14.34h0v0c0,.24.18.4.55.42h2.11"/><path class="cls-1" d="M17.62,13.66a.42.42,0,0,0,.16-.33v0c0-.24-.17-.4-.52-.41l-1.8,0H13.91c-.37,0-.54.19-.55.42v0h0a.4.4,0,0,0,.16.32.63.63,0,0,0,.39.1h3.32a.64.64,0,0,0,.38-.1"/><path class="cls-1" d="M29.57,6.26v0a.49.49,0,0,0-.12-.32.47.47,0,0,0-.32-.1.39.39,0,0,0-.43.41.46.46,0,0,0,.42.47.44.44,0,0,0,.45-.43"/><path class="cls-1" d="M25.62,8.16h0a.43.43,0,0,0-.3.13.38.38,0,0,0-.14.28h0a.45.45,0,0,0,.44.45.49.49,0,0,0,.32-.12.4.4,0,0,0,.13-.3v0a.41.41,0,0,0-.42-.44"/><path class="cls-1" d="M24.11,4.71A.43.43,0,0,0,24,5h0v0a.43.43,0,0,0,.13.29.38.38,0,0,0,.28.14h0A.45.45,0,0,0,24.86,5a.52.52,0,0,0-.13-.31.4.4,0,0,0-.3-.11.41.41,0,0,0-.32.11"/><path class="cls-1" d="M27.52,12.14h0v0a.42.42,0,0,0,.42.41h0a.41.41,0,0,0,.31-.12.56.56,0,0,0,.11-.33.47.47,0,0,0-.13-.31.43.43,0,0,0-.3-.11c-.29,0-.41.14-.44.44"/><path class="cls-1" d="M35.18,20.75a.45.45,0,0,0,.11.26.39.39,0,0,0,.31.2.59.59,0,0,0,.31-.13,23.47,23.47,0,0,0,2.44-2,3.55,3.55,0,0,0,.38-.4l.08-.22-.07-.22a.48.48,0,0,0-.4-.23.6.6,0,0,0-.31.15c-.82.81-1.73,1.52-2.62,2.24-.16.14-.23.25-.23.36"/><path class="cls-1" d="M15.72,31.28c-.35.12-.69.2-1,.33a.41.41,0,0,0-.29.38l0,.11h0a.44.44,0,0,0,.47.35l.38-.1a30.29,30.29,0,0,0,3.18-1.17,93.66,93.66,0,0,0,11.41-6.06c1-.61,2-1.26,3-1.91a.41.41,0,0,0,.17-.62.4.4,0,0,0-.34-.22.64.64,0,0,0-.3.09l-.18.12c-2.44,1.59-4.94,3.07-7.48,4.47a57.39,57.39,0,0,1-9.06,4.23"/><path class="cls-1" d="M12.07,34.92A5,5,0,0,0,13,35a8.23,8.23,0,0,0,1.21-.1,23.36,23.36,0,0,0,6-1.91,87.21,87.21,0,0,0,9.18-4.82,61.49,61.49,0,0,0,9.83-6.77,11.4,11.4,0,0,0,2.92-3.56,3.84,3.84,0,0,0,.41-1.68,3.28,3.28,0,0,0-1.89-2.9,9.59,9.59,0,0,0-4.73-1h-.09a19.81,19.81,0,0,0-4.4.51,34.75,34.75,0,0,0-15.5,7.94,24.9,24.9,0,0,0-5,5.84,10,10,0,0,0-1.65,4.69v.26a3.22,3.22,0,0,0,2.84,3.39M28.82,14.44a.88.88,0,0,1,.24-.11,27.78,27.78,0,0,1,3.71-.88,2.55,2.55,0,0,1,.34,0,.31.31,0,0,1,.26.12.6.6,0,0,1,.05.31v.29h0a13,13,0,0,1-.64,3.5,3.71,3.71,0,0,1-.39.77,1.47,1.47,0,0,1-.23.29.44.44,0,0,1-.28.12,1,1,0,0,1-.52-.22A5.07,5.07,0,0,1,30,17.07a22.2,22.2,0,0,1-1.17-2.14.52.52,0,0,1-.08-.26Zm-9.16,4.5a35.78,35.78,0,0,1,5-2.88h0l.21-.05.22.09.1.2a19.61,19.61,0,0,1,1.11,5.09h0v.11A4.64,4.64,0,0,1,26,23.37a.6.6,0,0,1-.58.41h-.14a4.16,4.16,0,0,1-1.6-.61,19.57,19.57,0,0,1-4.1-3.65.45.45,0,0,1-.13-.28.38.38,0,0,1,.2-.29m-6,5.32A29.73,29.73,0,0,1,16,21.9a.54.54,0,0,1,.33-.18.39.39,0,0,1,.31.21,14.23,14.23,0,0,1,1.69,3.12,5.33,5.33,0,0,1,.17.66,2.91,2.91,0,0,1,.05.46.58.58,0,0,1-.25.53,1.48,1.48,0,0,1-.73.12H17.3A9.88,9.88,0,0,1,14,25.75a3.74,3.74,0,0,1-.61-.31.42.42,0,0,1-.24-.35c0-.25.21-.44.53-.83m-2.74,4.1a19.94,19.94,0,0,1,1.11-2,.55.55,0,0,1,.45-.33.79.79,0,0,1,.35.11,13.6,13.6,0,0,0,3.92,1.48,5.54,5.54,0,0,0,.81.07,3.07,3.07,0,0,0,.8-.09,1.42,1.42,0,0,0,.75-.41,1.44,1.44,0,0,0,.24-.83v-.21a5,5,0,0,0-.46-2,14.8,14.8,0,0,0-1.61-2.81.63.63,0,0,1-.16-.38.48.48,0,0,1,.27-.4A6.77,6.77,0,0,0,18,20.2c.26-.2.39-.32.59-.34a.43.43,0,0,1,.28.13c.09.08.18.18.3.31a20.26,20.26,0,0,0,3.73,3.38,5.6,5.6,0,0,0,2.29,1l.41,0c.62,0,.93-.24,1.26-.93a4.57,4.57,0,0,0,.36-1.92A18.61,18.61,0,0,0,26,16.08a1.09,1.09,0,0,1-.07-.33.42.42,0,0,1,.12-.3.86.86,0,0,1,.33-.17,4.57,4.57,0,0,0,.8-.31.68.68,0,0,1,.32-.09c.22,0,.36.16.45.38a13.48,13.48,0,0,0,1.85,3.07,3.76,3.76,0,0,0,1.82,1.35,1,1,0,0,0,.33.05,1.06,1.06,0,0,0,.74-.34,5.31,5.31,0,0,0,1.33-3,15.68,15.68,0,0,0,.28-2.65.61.61,0,0,1,.07-.35.41.41,0,0,1,.37-.18c.4,0,.81,0,1.21,0a10.62,10.62,0,0,1,3.34.47,4.73,4.73,0,0,1,1.41.73,2.24,2.24,0,0,1,.93,1.79,2.49,2.49,0,0,1-.14.83A6.54,6.54,0,0,1,40,19.36a28,28,0,0,1-5.31,4.41A98.71,98.71,0,0,1,19.1,32.48a19.33,19.33,0,0,1-5,1.54,7.87,7.87,0,0,1-1.08.09A4.51,4.51,0,0,1,12,34a2.25,2.25,0,0,1-1.84-2.08,4.1,4.1,0,0,1,0-.49,7.41,7.41,0,0,1,.81-3.07"/><rect class="cls-2" width="50" height="35"/></g></g></svg>