<svg id="Layer_1" data-name="Layer 1" xmlns="http://www.w3.org/2000/svg" viewBox="0 0 50 35"><defs><style>.cls-1{fill:#faa630;}</style></defs><path class="cls-1" d="M21.17,7.74A8.42,8.42,0,0,0,23.05,11a4.62,4.62,0,0,1,1.26,2.58,2.93,2.93,0,0,1-1,2l-.59.6.78-.31a2.51,2.51,0,0,0,1.74-2.31,2.9,2.9,0,0,0-.42-1.45c-.56-1-1.29-1.85-1.91-2.77a3.85,3.85,0,0,1-.91-2,4.25,4.25,0,0,1,1-2.11l.34-.5L22.75,5a3.22,3.22,0,0,0-1.26.88,1.83,1.83,0,0,0-.4,1.18,2.44,2.44,0,0,0,.08.64"/><path class="cls-1" d="M16.54,9.57,17,10l-.16-.58c-.3-1-.56-1.91-.8-2.79a3,3,0,0,1-.13-.87,3.37,3.37,0,0,1,.44-1.62,3,3,0,0,1,1.83-1.47,4.77,4.77,0,0,0-1.1,3,6.89,6.89,0,0,0,.58,2.59c.44,1.09,1,2.11,1.39,3.18a6.69,6.69,0,0,1,.57,2.21,2.63,2.63,0,0,1-.16.9,6.66,6.66,0,0,0-1.67-3.27l-.41-.37.12.54a14.15,14.15,0,0,0,.9,2.54,3.55,3.55,0,0,1,.23,1.48v.64a7.77,7.77,0,0,0,0,.82l0,.39L19,17a4.7,4.7,0,0,0,1.5-3.29,4.76,4.76,0,0,0-.08-.83c-.36-2-1.49-3.72-2.13-5.55a5.21,5.21,0,0,1-.34-1.75A3.48,3.48,0,0,1,19.05,3c.3-.3.61-.58,1.05-1l.25-.24L20,1.73a5.43,5.43,0,0,0-.88-.08,3.92,3.92,0,0,0-3.64,2.2h0a4.72,4.72,0,0,0-.39,2,5.13,5.13,0,0,0,1.44,3.75"/><path class="cls-1" d="M39.5,20.38a1.44,1.44,0,0,0-.78-.15h-.08l-3.2,0H31.12a.86.86,0,0,1-.45-.09.67.67,0,0,1-.29-.45,2.87,2.87,0,0,1-.12-.68,1,1,0,0,1,.44-.81c1.64-1.41,3.18-2.92,4.75-4.38,1.14-1.06,2.28-2.11,3.41-3.18a2,2,0,0,0,.69-1.37A1.6,1.6,0,0,0,39,8.15a1.6,1.6,0,0,0-1.14-.52,2,2,0,0,0-1.38.7l-.8.84-6.8,7.27a2.45,2.45,0,0,1-.38.36.6.6,0,0,1-.4.13,1.1,1.1,0,0,1-.33-.05A6.43,6.43,0,0,0,26,16.61a4.88,4.88,0,0,0-4.46,2.92,1.4,1.4,0,0,1-.47.57,1.28,1.28,0,0,1-.67.15h-.09c-.62,0-1.23,0-1.84,0H15.73v0H13.29q-.88,0-1.77,0h-.23a1.46,1.46,0,0,0-.78.15.75.75,0,0,0-.31.67,3.1,3.1,0,0,0,.08.62,14.83,14.83,0,0,0,8.47,10.6,2.36,2.36,0,0,1,.74.48.91.91,0,0,1,.24.66,1.68,1.68,0,0,1,0,.29,2.14,2.14,0,0,0,0,.34.86.86,0,0,0,.35.76,1.55,1.55,0,0,0,.89.2H21q2,0,3.9,0T29,35H29a1.75,1.75,0,0,0,.89-.18.81.81,0,0,0,.39-.76,2,2,0,0,0,0-.33h0a1.89,1.89,0,0,1,0-.31.92.92,0,0,1,.28-.7,3.07,3.07,0,0,1,.8-.49,14.79,14.79,0,0,0,8.39-10.68A3,3,0,0,0,39.8,21a.69.69,0,0,0-.3-.63M20.67,32.94a.68.68,0,0,1,.49-.14h7.7a.67.67,0,0,1,.47.13.65.65,0,0,1,.13.48v0a.78.78,0,0,1-.14.53.76.76,0,0,1-.52.15c-1.34,0-2.68,0-4,0H21.18c-.3,0-.44-.06-.52-.15a.82.82,0,0,1-.13-.52h0v0a.66.66,0,0,1,.14-.49m-8.73-9.68a2.14,2.14,0,0,1,.75-.09h0c6.77,0,13.54,0,20.31,0h2.23l-.16-.26A1.14,1.14,0,0,0,34,22.33H12.08a1.71,1.71,0,0,1-.68-.1.58.58,0,0,1-.25-.57c0-.1,0-.2,0-.3a.38.38,0,0,1,.13-.25.42.42,0,0,1,.22-.05c.16,0,.35,0,.54,0h20l3.43,0c.8,0,1.6,0,2.39,0h.12a1.25,1.25,0,0,1,.63.12.4.4,0,0,1,.16.36,2,2,0,0,1-.08.48,14.09,14.09,0,0,1-8.38,9.68,3,3,0,0,1-1.05.24c-2.89,0-5.78,0-8.67,0a5,5,0,0,1-2.43-.89A14.32,14.32,0,0,1,12,24.23a1.85,1.85,0,0,1-.2-.69.27.27,0,0,1,.18-.28M29.23,18.9a1.39,1.39,0,0,0,.22.71,1.28,1.28,0,0,1,.18.46l0,.1a.58.58,0,0,1-.33.07h-7a4.09,4.09,0,0,1,3.76-2.83,3.6,3.6,0,0,1,1.31.24,2.35,2.35,0,0,0,.81.17,1.78,1.78,0,0,0,1.34-.73c2.35-2.57,4.74-5.1,7.12-7.64.21-.22.41-.44.62-.64a.92.92,0,0,1,.63-.3.71.71,0,0,1,.51.23.75.75,0,0,1,.28.56.94.94,0,0,1-.34.65c-1.34,1.27-2.7,2.53-4,3.79s-2.88,2.71-4.36,4a1.57,1.57,0,0,0-.69,1.13"/></svg>