<svg id="Layer_1" data-name="Layer 1" xmlns="http://www.w3.org/2000/svg" viewBox="0 0 50 35"><defs><style>.cls-1{fill:#faa630;}</style></defs><path class="cls-1" d="M20.4,20.1,20.17,20c-.16-.06-.37-.1-.31-.34s.25-.21.42-.22a3.69,3.69,0,0,1,1.8.24l.47.17a4.28,4.28,0,0,0-.68-1.16c-.5-.69.28-.72.54-1s.5-.09.66.24a22.87,22.87,0,0,1,.78,2.18A3.94,3.94,0,0,1,26.48,19a4.94,4.94,0,0,0-2.1-1.31,4.4,4.4,0,0,1-3.68-3.38,4.46,4.46,0,0,1,1.71-4.81A1.56,1.56,0,0,0,23,8.61a4.43,4.43,0,0,1,3.4-3.35,1.59,1.59,0,0,0,.87-.49,3.16,3.16,0,0,1,2.4-1,1.13,1.13,0,0,0,.8-.31,5.05,5.05,0,0,1,7.64.69,1,1,0,0,0,.67.42,5,5,0,0,1,4.23,4.3c.07.42.31.45.6.55a5.08,5.08,0,0,1-.41,9.82,4.82,4.82,0,0,1-4-.82c-.39-.29-.55-.2-.8.15a8.77,8.77,0,0,0-1.33,5.79h.11c.41,0,1-.35,1.19.1s-.3.76-.56,1.08-.7.77-1.11,1.2a6.62,6.62,0,0,1,2.08,0c.27,0,.62,0,.71.37s-.27.46-.49.61a8.74,8.74,0,0,1-2.08,1c.65.15,1.18.25,1.7.39a2.67,2.67,0,0,1,.71.32c.19.1.4.22.36.49s-.26.28-.44.35a8.51,8.51,0,0,1-2.7.42c-.63,0-1.26-.05-1.89-.09-.29,0-.45,0-.54.37a3.21,3.21,0,0,1-2.92,2.51A118.44,118.44,0,0,1,16.64,35a25.74,25.74,0,0,1-5.47-.38,4.12,4.12,0,0,1-.69-.18c-.6-.23-.64-.43-.22-1A4.48,4.48,0,0,1,7.87,32.1a1.7,1.7,0,0,0-.81-.39,3.19,3.19,0,0,1-2.44-2.63c-.47-3.15-1-6.27-1.74-9.37A3.59,3.59,0,0,1,6.4,15.23,2.17,2.17,0,0,0,8,14.74a1.53,1.53,0,0,1,1.56-.23c.41.12.55,0,.56-.39a14,14,0,0,0-.14-2.42.9.9,0,0,0-.39-.65A.67.67,0,0,0,8.8,11c-.23.12-.15.38-.14.59a.51.51,0,0,0,0,.13c0,.32.35.7-.09.94a1.47,1.47,0,0,1-1.5,0,.93.93,0,0,1-.37-1.09A2.68,2.68,0,0,1,9.26,9.25a2.41,2.41,0,0,1,2.43,1.63,6.64,6.64,0,0,1,.51,1.75c.09.58.18,1.16.28,1.77a2.59,2.59,0,0,1,2.83.35.85.85,0,0,0,.56.11,3.29,3.29,0,0,1,3.51,3.54,5.14,5.14,0,0,1-.05,1.24c-.1.47,0,.64.49.56a3.62,3.62,0,0,1,.57,0,.38.38,0,0,0,0-.1M3.55,18.36a1.85,1.85,0,0,0-.07,1.33c.3,1.76,1,3.43,1.19,5.22.15,1.34.34,2.68.56,4a2.2,2.2,0,0,0,1.69,2c-.09-.43-.19-.84-.27-1.27a.29.29,0,0,1,.21-.36c.21-.05.33.07.38.26s.06.21.08.32a3.64,3.64,0,0,0,2.21,2.72,2.85,2.85,0,0,0,2.76,0c.62-.33,1.26-.6,1.88-.91a1.52,1.52,0,0,0,.73-2.24c-.13-.23-.26-.46-.37-.7-1.34-2.88-.37-6.14,1.71-7.36.11-.07.36-.11.21-.38a3,3,0,0,1-.2-1.14,2.61,2.61,0,0,0-3.69-2.2,4.85,4.85,0,0,1-3.48.18c-1.83-.59-3.12.74-2.67,2.6,0,.19.11.37.16.56s0,.36-.17.42-.31-.05-.41-.22a2.61,2.61,0,0,1,1.47-3.9,2.8,2.8,0,0,1,.76-.17c.61,0,.46-.39.3-.72a1,1,0,0,0-.76-.46,4.16,4.16,0,0,0-3,.45,2.43,2.43,0,0,0-1.26,2Zm38.66.16a4.15,4.15,0,0,0,3.31-1.69A4.25,4.25,0,0,0,43.1,10.1c-.4-.09-.79-.12-.83-.71a4.16,4.16,0,0,0-3.86-4.07,1,1,0,0,1-.81-.54,4.23,4.23,0,0,0-6.71-.55,1,1,0,0,1-1,.36,2.3,2.3,0,0,0-2.18,1,1.23,1.23,0,0,1-.8.47,3.68,3.68,0,0,0-3.19,3.18,1.08,1.08,0,0,1-.55.81,3.76,3.76,0,1,0,4.11,6.28c.46-.31.72-.3,1.09.13a4.16,4.16,0,0,0,5.14,1.12,1.12,1.12,0,0,1,.93-.05,4.1,4.1,0,0,0,3.64-.29.75.75,0,0,1,1.08.12,4.09,4.09,0,0,0,3,1.21M27.07,21l.24.31c.23.28.48.63.29.95s-.54,0-.81-.07c-.57-.1-1.2-.42-1.71-.07s-.24,1-.16,1.47a.29.29,0,0,1-.08.3c-.14.11-.25,0-.35-.05a4.94,4.94,0,0,1-.92-1c-.09-.13-.14-.36-.38-.25-.44.22-.94.37-1.17.89-.08.18-.09.51-.36.46s-.31-.37-.34-.64c-.05-.46.24-.85.33-1.36l-1.27.33c-.16,0-.34.17-.49,0s0-.37.09-.53.34-.49.52-.74c-2.14-.62-5.09,1.2-5.7,3.51s.29,4.09,1.57,5.84c.22.29.43.11.63,0C20.16,29,23.45,28,26.68,26.82A10.52,10.52,0,0,1,31.15,26c.49,0,.57-.11.57-.55A4.58,4.58,0,0,0,27.07,21m-.66,12.39c-.09-.47-.17-.87-.24-1.27a.32.32,0,0,1,.21-.42c.23-.06.37.08.43.29a6.66,6.66,0,0,1,.25.95c.05.3.19.36.44.32,1.42-.23,2.86-.39,4.26-.7a2.35,2.35,0,0,0,1.63-3c-.09-.31-.2-.62-.29-.93-.5-1.75-1.43-2.28-3.24-1.93-.35.07-.35.21-.28.48.14.52.27,1,.4,1.58.06.23.17.5-.16.6s-.42-.21-.49-.46A13,13,0,0,1,29,27.45c-.07-.49-.3-.54-.71-.41-1.42.41-2.82.91-4.2,1.43-1.07.39-1.08.4-.95,1.52,0,.26,0,.45-.27.5s-.33-.16-.39-.35a1.19,1.19,0,0,1-.05-.26c0-.66-.33-.69-.88-.5-1.78.59-3.51,1.31-5.22,2.06-.52.23-1,.37-.72,1.11a.32.32,0,0,1-.23.46.27.27,0,0,1-.36-.2c-.1-.78-.44-.45-.85-.25-.64.33-1.31.58-2,.85a3.33,3.33,0,0,0-1,.51c.28.06.49.12.7.15a37.7,37.7,0,0,0,5.62.24c.93,0,.94,0,.93-1,0-.22,0-.47.27-.5s.39.2.4.47.06.35.06.52.17.39.47.36l6.77-.76m-.16-15.68a15.31,15.31,0,0,1,2.54,2.55,1.89,1.89,0,0,0,.74.6A5.08,5.08,0,0,1,32.21,24,4.86,4.86,0,0,1,32.44,26c0,.53.42.7.69,1s.42-.19.59-.34A12.36,12.36,0,0,1,35.86,25a.64.64,0,0,0,.37-.73,11.11,11.11,0,0,1,.16-3,10,10,0,0,1,1.06-2.82,6.1,6.1,0,0,1-1,.14.78.78,0,0,0-.86.67,8.83,8.83,0,0,0-.52,2.55c0,.23.08.55-.25.58s-.33-.35-.35-.59c-.08-.87-.13-1.74-.19-2.61s0-.91-1-.68a1,1,0,0,0-.92,1.1c0,.7-.21,1.38-.32,2.07,0,.22,0,.48-.33.46s-.24-.27-.25-.46A3.06,3.06,0,0,0,30.9,20a16.19,16.19,0,0,0-2.07-2.07,1.62,1.62,0,0,0-2.33-.29l-.25.15m-15.88-2.1c-.33.35-.53.61-.83.71s-.24.31-.26.53.17.3.34.38c1.24.59,2.29-.15,3.39-.48.22-.07.2-.26,0-.39a3,3,0,0,1-1.25-2.46A9.16,9.16,0,0,0,11.07,11a1.77,1.77,0,0,0-1.8-1.15,2,2,0,0,0-1.89,1.63c0,.2-.14.43.06.61a.48.48,0,0,0,.5.05C8.25,12,8,11.8,8,11.6c0-.45,0-.9.39-1.17a1.32,1.32,0,0,1,1.38,0,1.46,1.46,0,0,1,.76,1.09,10,10,0,0,1,.08,3.13c-.05.25-.28.61.3.63.16,0,.17.25.12.44a1.89,1.89,0,0,1-.85,1.19c-.19.13-.39.25-.57,0s0-.36.18-.48a1.22,1.22,0,0,0,.56-.78M17,20.85c.35-.13.67-.26,1-.37s.55-.08.61-.47a5.8,5.8,0,0,0-.25-3.14c-.68-1.62-3.31-1.73-4.21-.78-.17.17-.39.37-.33.6s.34.2.54.24a2.75,2.75,0,0,1,2.38,2.36c.1.51.17,1,.26,1.56m10,.89a2.37,2.37,0,0,0-2-.56c-.54,0-.63-.11-.38-.59.11-.22.26-.43.41-.67a.85.85,0,0,0-.59.3c-.9.74-1,.74-2.06.16A2.14,2.14,0,0,0,21.37,20a2.27,2.27,0,0,0,.25.27c.45.37.4.6-.16.78a1.17,1.17,0,0,0-.78.64l1.22-.26c.17,0,.35-.1.49.06s0,.32-.09.47a1.33,1.33,0,0,0-.29.71,8,8,0,0,1,1.27-.6c.65-.18.54.7,1,.82.26-1.37.5-1.48,2.74-1.15m10.15,3.41a8.57,8.57,0,0,0-3.58,2.61,10.37,10.37,0,0,0,3.58-2.61m1.15,4.53a9.86,9.86,0,0,0-3.93-.16c-.11,0-.24,0-.22.18s.18.17.31.17a20.68,20.68,0,0,0,2.61.06,2.29,2.29,0,0,0,1.23-.25m-.23-2.32a7.61,7.61,0,0,0-4,1.18,11,11,0,0,0,4-1.18m-12.58-7a13.17,13.17,0,0,1,2.26,0l-1.15-1.17c-.23.49-.82.58-1.11,1.15m-11-5.3a1.57,1.57,0,0,0-1.45-.17c-.15.06-.39.12-.34.33a1.07,1.07,0,0,0,.47.6.29.29,0,0,0,.41,0c.29-.25.59-.49.91-.74m16.2,3.74,1,1.32c.24-1.32.24-1.32-1-1.32M8.25,15.34c.22.16.41.27.57.41s.44.05.63-.08.3-.21.23-.36-.34-.22-.55-.23a1,1,0,0,0-.88.26m14.93,4.47a5.19,5.19,0,0,0-.43-1.42c-.05-.1-.1-.26-.28-.16s-.18.21-.07.36l.78,1.22"/><path class="cls-1" d="M22.28,13.11a3.7,3.7,0,0,1,1.81-3.22c.23-.15.49-.28.69,0s0,.51-.23.7a3,3,0,0,0-1.06,4.06c.11.29.28.61-.1.79s-.52-.17-.66-.45a5.26,5.26,0,0,1-.45-1.88"/><path class="cls-1" d="M36.88,6.57a4.24,4.24,0,0,1,4,3.32,3.44,3.44,0,0,1,.05.45c0,.25-.09.44-.35.47a.37.37,0,0,1-.45-.36c-.22-2-1.6-2.81-3.42-3.08-.29,0-.51-.15-.48-.49s.21-.33.62-.31"/><path class="cls-1" d="M29.48,5.29c.3,0,.61,0,.62.43s-.26.41-.54.41a1.84,1.84,0,0,0-1.39.76c-.19.23-.41.36-.67.15s-.14-.47,0-.69a2.68,2.68,0,0,1,1.94-1.06"/><path class="cls-1" d="M3.53,18.38A3.51,3.51,0,0,1,7,16.18c.27,0,.65-.06.64.35s-.38.27-.62.28a2.67,2.67,0,0,0-2.88,1.85c-.06.18-.17.33-.38.27s-.31-.31-.24-.57Z"/><path class="cls-1" d="M15.68,15.89a2.38,2.38,0,0,1,2.68,1.95c.05.25.11.51-.21.58s-.33-.19-.39-.41a1.74,1.74,0,0,0-2-1.48l-.45,0c-.16,0-.31,0-.35-.21a.3.3,0,0,1,.26-.38l.5-.07"/></svg>