<svg xmlns="http://www.w3.org/2000/svg" viewBox="0 0 50 35"><defs><style>.cls-1{fill:#fea72d;}.cls-2{fill:none;}</style></defs><title>Asset 11</title><g id="Layer_2" data-name="Layer 2"><g id="Layer_1-2" data-name="Layer 1"><path class="cls-1" d="M32.76,12.52a1.46,1.46,0,0,0,.89.44h.09a.29.29,0,0,0,.19-.05.28.28,0,0,0,.1-.18l0-.12L34,12.46a.45.45,0,0,0-.2-.1,1.24,1.24,0,0,1-.62-.32l-3.81-3.8a1,1,0,0,1-.31-.69,1,1,0,0,1,.05-.3h0a1.18,1.18,0,0,1,1.11-.85,1.08,1.08,0,0,1,.79.36c.92,1,1.88,2,2.84,3a.49.49,0,0,0,.35.18l.19-.09.08-.18a.52.52,0,0,0-.16-.34l-3-3.11a1.47,1.47,0,0,0-1.08-.46h0a1.76,1.76,0,0,0-1.66,1.12,1.63,1.63,0,0,0-.15.67,1.55,1.55,0,0,0,.47,1.11l3.87,3.86"/><path class="cls-1" d="M11.19,9.05H10a.44.44,0,0,0-.3.09.28.28,0,0,0-.08.22.27.27,0,0,0,.08.22.49.49,0,0,0,.31.09H27.11a.58.58,0,0,0,.36-.09.23.23,0,0,0,.09-.21h0a.29.29,0,0,0-.1-.22.62.62,0,0,0-.35-.09h-.68a3.46,3.46,0,0,0-.46,0h-.12a.61.61,0,0,1-.49-.2.93.93,0,0,1-.13-.5h0V8.2c0-.36.05-.72.05-1a1.7,1.7,0,0,0-.22-.94l0-.06V6.08l0-.23.05,0a1,1,0,0,0,.21-.69c0-.17,0-.35,0-.54V4.43A.63.63,0,0,0,25,3.88a1.42,1.42,0,0,1-.77-1.3v-.3c0-.13,0-.16-.07-.2A.61.61,0,0,0,23.86,2H22.74a1.46,1.46,0,0,0-.47,0c-.07,0-.07,0-.1.12a.9.9,0,0,0,0,.28v.17h0v.08a1.29,1.29,0,0,1-.12.58,1.11,1.11,0,0,1-.43.43.89.89,0,0,0-.48.84V4.7h0v.07c0,.14,0,.26,0,.34v.07a1.59,1.59,0,0,1,.19.77,9,9,0,0,1-.12,1c0,.21,0,.42,0,.64s0,.61,0,.92h0a.47.47,0,0,1-.54.54H19.5c-.29,0-.58,0-.87,0h-.09a.88.88,0,0,1-.29,0A.52.52,0,0,1,18,8.84a.93.93,0,0,1-.13-.51h0V8.16c0-.36.05-.71.05-1a1.64,1.64,0,0,0-.21-.9l0-.07V6.09l0-.23.05-.05A1,1,0,0,0,18,5.09c0-.17,0-.35,0-.53V4.47h0v0a.64.64,0,0,0-.28-.56,1.42,1.42,0,0,1-.77-1.3v-.3c0-.13,0-.16-.07-.2A.56.56,0,0,0,16.53,2H15.16a.41.41,0,0,0-.27.09.41.41,0,0,0-.09.3,2.44,2.44,0,0,0,0,.27v.2h0V3a.66.66,0,0,1-.36.62,1.19,1.19,0,0,0-.71,1.16,3,3,0,0,0,.09.64,3.25,3.25,0,0,1,.09.74,3.57,3.57,0,0,1-.06.65h0a2.45,2.45,0,0,0,0,.48c0,.26,0,.53,0,.81a4.14,4.14,0,0,1,0,.52.52.52,0,0,1-.23.38.76.76,0,0,1-.28.09H11.19m11-5a3.55,3.55,0,0,0,.44-.37.59.59,0,0,0,.16-.4l0-.17h0V3a.37.37,0,0,1,.17-.32.52.52,0,0,1,.29-.07.41.41,0,0,1,.31.11.33.33,0,0,1,.12.29v.11h0v.14a.62.62,0,0,0,.13.38,2.31,2.31,0,0,0,.39.34,1.06,1.06,0,0,1,.55.85,1.3,1.3,0,0,1-.3.74.82.82,0,0,0-.16.45.53.53,0,0,0,.13.36,1.31,1.31,0,0,1,.26.85v.07h0c0,.19,0,.38,0,.57s0,.39,0,.58h0a.63.63,0,0,1-.12.41.51.51,0,0,1-.4.16h-1a4.59,4.59,0,0,1-.7,0,.63.63,0,0,1-.47-.28.81.81,0,0,1-.12-.35,5.34,5.34,0,0,1,0-.62v-.4a1.66,1.66,0,0,1,.3-1.06.39.39,0,0,0,.09-.26.8.8,0,0,0-.2-.5,1.09,1.09,0,0,1-.27-.68,1,1,0,0,1,.47-.81m-7.39,0a2.88,2.88,0,0,0,.48-.39.66.66,0,0,0,.17-.45V3.1h0V3a.37.37,0,0,1,.2-.33.6.6,0,0,1,.27-.05.45.45,0,0,1,.31.11.4.4,0,0,1,.11.28v.09h0l0,.15a.64.64,0,0,0,.15.4,2.39,2.39,0,0,0,.43.37,1,1,0,0,1,.5.81,1.26,1.26,0,0,1-.29.73.78.78,0,0,0-.17.47.6.6,0,0,0,.13.37,1.17,1.17,0,0,1,.26.78v.06c0,.2,0,.4,0,.61s0,.42,0,.63h0a.55.55,0,0,1-.13.4.5.5,0,0,1-.39.15h-.91v0H15a.47.47,0,0,1-.36-.14.51.51,0,0,1-.13-.38V7h0a.83.83,0,0,1,.21-.5h0A.85.85,0,0,0,14.83,6a.83.83,0,0,0-.2-.5,1.07,1.07,0,0,1-.25-.67.92.92,0,0,1,.41-.76"/><path class="cls-1" d="M17.66,33.7a.65.65,0,0,0,0,1.3h0a.65.65,0,0,0,.65-.62v0a.66.66,0,0,0-.65-.66"/><path class="cls-1" d="M25.12,24.63a.53.53,0,0,0,.33-.1.28.28,0,0,0,.09-.21.3.3,0,0,0-.09-.22A.62.62,0,0,0,25.1,24h-.82a.51.51,0,0,1-.33-.1.46.46,0,0,1-.14-.33l0-.13h0c0-.27.07-.54.1-.81v-.07a.39.39,0,0,0-.06-.22.34.34,0,0,0-.21-.1H23.6c-.13,0-.24.08-.29.34s-.08.6-.11.9a.5.5,0,0,1-.57.52H19.92a.63.63,0,0,1-.41-.12.62.62,0,0,1-.17-.39c0-.33-.06-.66-.12-1a.41.41,0,0,0-.1-.22.27.27,0,0,0-.18-.06h-.06a.31.31,0,0,0-.2.09.27.27,0,0,0-.07.21v0h0a4.71,4.71,0,0,0,.09.67,1.13,1.13,0,0,1,0,.25.54.54,0,0,1-.13.37.52.52,0,0,1-.39.14H18l-.21,0-.31,0h0a.4.4,0,0,0-.26.09.26.26,0,0,0-.07.21h0v0a.3.3,0,0,0,.08.21.32.32,0,0,0,.24.07h.9a.52.52,0,0,1,.39.15.55.55,0,0,1,.15.37c0,.4.09.79.16,1.18a.46.46,0,0,0,.11.27l.18.06h.07a.29.29,0,0,0,.18-.1.36.36,0,0,0,.07-.24v-.09c0-.33-.07-.66-.13-1v-.16a.43.43,0,0,1,.14-.34.49.49,0,0,1,.36-.12H22.5a.57.57,0,0,1,.34.11.37.37,0,0,1,.14.33v.12h0c0,.34-.09.68-.13,1v.09a.36.36,0,0,0,.07.24.29.29,0,0,0,.18.1h.07l.18-.07a.45.45,0,0,0,.11-.26,10.37,10.37,0,0,0,.15-1.1.74.74,0,0,1,.13-.42.54.54,0,0,1,.45-.19h.1l.34,0h.51"/><path class="cls-1" d="M40.42,5.13a2.68,2.68,0,0,0-2.65-2.66h0A2.66,2.66,0,0,0,35.1,5.13v0h0a2.66,2.66,0,0,0,5.32,0Zm-.63,0a2,2,0,1,1-2-2,2,2,0,0,1,2,2h0Z"/><path class="cls-1" d="M40.21,21v0c0-1.25,0-2.5,0-3.75,0-1.59,0-3.18,0-4.77a6.2,6.2,0,0,0-.09-1.16,2.18,2.18,0,0,0-2-1.85,4.43,4.43,0,0,0-.52,0,5.07,5.07,0,0,0-.55,0,2.17,2.17,0,0,0-1.44.62,2.25,2.25,0,0,0-.52,1.5V12c0,.38,0,.77,0,1.16h0v.15a1.09,1.09,0,0,1,0,.32.4.4,0,0,1-.22.27L34.6,14H31a1.57,1.57,0,0,0-1.56,1.2,1.88,1.88,0,0,0-.08.52,2,2,0,0,0,.08.54h0a.85.85,0,0,1,.05.22l-.1.24-.23.1a.24.24,0,0,0-.18.11,1,1,0,0,0-.11.29l-.6,2.55a.74.74,0,0,1-.19.4.63.63,0,0,1-.48.19c-.49,0-1,0-1.48,0l-2.71,0H21.11c-1.25,0-2.49,0-3.73,0h-.06c-.93,0-1.86,0-2.81,0h-.09a1,1,0,0,0-.49.08s-.07,0-.08.21a2.24,2.24,0,0,0,.05.37c.51,2.37,1,4.75,1.54,7.13a2.28,2.28,0,0,0,.15.53c.05.05,0,.06.19.08a2.38,2.38,0,0,0,.43,0h9.23a1.24,1.24,0,0,1,.27,0A.38.38,0,0,1,26,29l.06.22a1.18,1.18,0,0,1,0,.25c-.18.63-.33,1.26-.45,1.9a.82.82,0,0,1-.26.48.86.86,0,0,1-.53.13h-7.7l-.28,0a.34.34,0,0,0-.19.09.29.29,0,0,0-.06.2.33.33,0,0,0,.06.21.27.27,0,0,0,.18.09,1,1,0,0,0,.25,0h8.35c.3,0,.43,0,.46-.07s.11-.14.18-.42l2.1-8.85c.43-1.79.87-3.57,1.3-5.35a.59.59,0,0,1,.21-.35.68.68,0,0,1,.38-.12c1.06,0,2.11,0,3.16-.06s2.34-.06,3.51-.09a1,1,0,0,0,.42-.11,6.77,6.77,0,0,0,1.54-1.46h0a.41.41,0,0,0,.13-.27l-.1-.21-.19-.09a.47.47,0,0,0-.3.15c-.33.34-.65.68-1,1a1,1,0,0,1-.71.34l-5.43.13h0a.93.93,0,0,1-.59-.19,1,1,0,0,1-.35-.5,1.12,1.12,0,0,1-.08-.43,1,1,0,0,1,.32-.77,1.13,1.13,0,0,1,.81-.31h4.22c.13,0,.18,0,.22-.06.44-.46.88-.92,1.28-1.4l.06-.15-.1-.22a.33.33,0,0,0-.21-.09.35.35,0,0,0-.22.09c-.07.05-.16.14-.31.28l-.39.36v-.52c0-.36,0-.69,0-1s0-.4,0-.6a1.29,1.29,0,0,1,.26-.76,1.15,1.15,0,0,1,.69-.42,5.1,5.1,0,0,1,1-.12,1.72,1.72,0,0,1,1.46.59,2.6,2.6,0,0,1,.44,1.66v8.89a4.69,4.69,0,0,1-.52,2.2A5.51,5.51,0,0,0,38.4,26v0h0v6.35a2.6,2.6,0,0,1,0,.54A1.33,1.33,0,0,1,37,34h-.09a1.35,1.35,0,0,1-1.26-1.27h0c0-.13,0-.25,0-.36v-.24c0-3.82,0-7.63,0-11.44,0-.77,0-1.53,0-2.29a.25.25,0,0,0-.06-.19.32.32,0,0,0-.21-.09h-.06l-.14.05a.48.48,0,0,0-.11.19,1,1,0,0,0,0,.33v2c0,3.2,0,6.4,0,9.6,0,.78,0,1.56,0,2.34a1.89,1.89,0,0,0,.91,1.7,2,2,0,0,0,1.06.32,2.08,2.08,0,0,0,.94-.24A1.86,1.86,0,0,0,39,32.66c0-1.06,0-2.12,0-3.19s0-2.33,0-3.49a4.51,4.51,0,0,1,.51-2.2A5.91,5.91,0,0,0,40.21,21m-12.37.76c-.49,2-.95,3.94-1.41,5.92a.75.75,0,0,1-.22.41.71.71,0,0,1-.47.14h-9.1a.76.76,0,0,1-.43-.1.68.68,0,0,1-.25-.42c-.41-2-.85-4-1.29-6h0l0-.23,0-.21.16-.16a.75.75,0,0,1,.39-.07H27.29a1,1,0,0,1,.3,0,.44.44,0,0,1,.25.2l0,.2a1.45,1.45,0,0,1,0,.28"/><path class="cls-1" d="M10.41,17.44h8.46c.11,0,.26,0,.41,0l7.89,0a.44.44,0,0,0,.29-.07.42.42,0,0,0,.1-.24v0l-.09-.17a.45.45,0,0,0-.32-.1H25.78a.51.51,0,0,1-.41-.16.62.62,0,0,1-.11-.41c0-.59,0-1.18,0-1.77s0-1.27,0-1.9a.75.75,0,0,1,.06-.32.61.61,0,0,1,.25-.28.29.29,0,0,0,.17-.24.42.42,0,0,0-.09-.23,10.46,10.46,0,0,0-.65-.84.34.34,0,0,0-.27-.15.32.32,0,0,0-.24.13h0a.72.72,0,0,1-.53.25h-.12a.37.37,0,0,0-.2,0,3.31,3.31,0,0,0-1.91,2.92V14c0,.22,0,.44,0,.66s0,.7,0,1,0,.4,0,.59h0a.55.55,0,0,1-.14.42.54.54,0,0,1-.42.14H18.29a.52.52,0,0,1-.4-.14.63.63,0,0,1-.14-.44c0-.6,0-1.21,0-1.81s0-1.27,0-1.9a.71.71,0,0,1,.07-.32.62.62,0,0,1,.24-.24c.14-.1.17-.17.17-.25a.37.37,0,0,0-.09-.22,9.56,9.56,0,0,0-.67-.87.4.4,0,0,0-.25-.14.39.39,0,0,0-.23.14h0a.69.69,0,0,1-.55.26h-.12l-.17,0a3.37,3.37,0,0,0-1.92,2.93v.09h0v1.41c0,.25,0,.5,0,.75h0v.08a.63.63,0,0,1-.22.52.84.84,0,0,1-.48.12H10.41a.61.61,0,0,0-.38.09.27.27,0,0,0-.09.24.21.21,0,0,0,.08.2.65.65,0,0,0,.39.09m12-1.19V13.83a2.54,2.54,0,0,1,1.4-2.19h0a.73.73,0,0,1,.39-.13.44.44,0,0,1,.38.2.76.76,0,0,1,.11.42v2h0v1.2c0,.29,0,.58,0,.88h0a.61.61,0,0,1-.13.41.5.5,0,0,1-.4.15H22.87a.46.46,0,0,1-.41-.17.65.65,0,0,1-.1-.4Zm-7.49-2.59a2,2,0,0,1,.46-1.26,3.52,3.52,0,0,1,1-.81h0a.62.62,0,0,1,.34-.11.46.46,0,0,1,.37.21.77.77,0,0,1,.1.4v2.09h0v1.15c0,.29,0,.59,0,.88v0h0a.49.49,0,0,1-.54.56H15.35a.47.47,0,0,1-.37-.14.5.5,0,0,1-.12-.38V14.68c0-.34,0-.68,0-1"/><path class="cls-1" d="M23.94,33.7h0a.64.64,0,0,0-.62.66v0h0a.63.63,0,0,0,.65.6h0a.63.63,0,0,0,.6-.65v0a.64.64,0,0,0-.64-.62"/><rect class="cls-2" width="50" height="35"/></g></g></svg>