<svg id="Layer_1" data-name="Layer 1" xmlns="http://www.w3.org/2000/svg" viewBox="0 0 50 35"><defs><style>.cls-1{fill:#faa630;}</style></defs><path class="cls-1" d="M38.73,5.08a12.23,12.23,0,0,1-.52,4.27c-.19.76-.34,1.52-.51,2.28a3.35,3.35,0,0,0-.07.71V24.09a15.35,15.35,0,0,0,.44,2.6c.19,1,.42,2.1.63,3.16a2,2,0,0,1,0,.34v4.09c0,.29,0,.55-.36.67a.59.59,0,0,1-.69-.23c-.32-.33-.66-.64-1-1-.13-.14-.22-.14-.36,0-.29.32-.61.62-.92.93s-.66.44-1.11,0-.62-.61-.92-.93c-.13-.13-.21-.13-.33,0l-1,1c-.42.42-.65.42-1.07,0s-.63-.62-.94-.95c-.14-.14-.22-.14-.35,0-.33.35-.66.67-1,1a.57.57,0,0,1-.94,0c-.34-.33-.68-.65-1-1-.15-.16-.23-.14-.38,0-.32.34-.65.67-1,1a.56.56,0,0,1-.92,0c-.34-.33-.68-.65-1-1-.17-.17-.26-.15-.41,0-.32.34-.66.67-1,1a.56.56,0,0,1-.9,0c-.32-.31-.65-.61-.94-1s-.34-.2-.53,0-.61.63-.92.93a.56.56,0,0,1-.92,0c-.32-.31-.64-.62-.95-.95s-.28-.23-.47,0-.64.65-1,1a.56.56,0,0,1-.9,0c-.33-.33-.67-.66-1-1-.15-.16-.25-.18-.41,0-.31.35-.66.67-1,1a.54.54,0,0,1-.64.19.57.57,0,0,1-.37-.6c0-1.42-.05-2.84,0-4.25a15.64,15.64,0,0,1,.43-2.33c.2-1.05.42-2.11.63-3.16a2.36,2.36,0,0,0,0-.38c0-4,0-8,0-12A11.85,11.85,0,0,0,11.9,10c-.17-.88-.38-1.75-.58-2.61a3.82,3.82,0,0,1-.08-.75c0-1.31,0-2.61,0-3.92,0-.3,0-.55.36-.67s.5,0,.7.23.65.64,1,1c.14.14.22.15.36,0,.31-.34.64-.65,1-1s.63-.37,1,0l1,1c.12.13.2.13.33,0,.3-.33.62-.64.94-1s.65-.43,1.07,0,.64.62.94.95c.14.14.22.13.36,0,.32-.34.66-.66,1-1a.57.57,0,0,1,.95,0c.33.33.67.65,1,1,.15.16.24.14.38,0,.32-.34.66-.67,1-1a.56.56,0,0,1,.92,0c.34.33.68.65,1,1,.16.17.25.15.4,0,.32-.34.66-.67,1-1a.54.54,0,0,1,.89,0c.33.32.67.63,1,1s.31.18.48,0,.62-.64.94-.95a.56.56,0,0,1,.92,0c.32.31.65.62,1,.95s.29.23.48,0,.64-.65,1-1a.54.54,0,0,1,.89,0c.34.33.67.66,1,1,.15.16.25.18.41,0,.31-.34.65-.65,1-1a.58.58,0,0,1,.7-.2.59.59,0,0,1,.33.62v2.4m-1.19,28,.09,0c0-.71,0-1.41,0-2.12,0-.27-.09-.31-.33-.31-1.27,0-2.55,0-3.82,0-.86,0-.86,0-.81-.88,0-.16,0-.22.21-.22s.62,0,.93,0c1.13,0,2.27,0,3.4,0,.11,0,.31.08.26-.18-.24-1.18-.49-2.37-.72-3.56,0-.15-.11-.18-.23-.2a14,14,0,0,0-3.59-.46c-.82,0-.82,0-.81-.82,0-.23.07-.27.29-.28a12.54,12.54,0,0,1,3.81.38c.24.06.31,0,.31-.24q0-5.68,0-11.37c0-.24,0-.32-.3-.31-.93,0-1.86,0-2.78,0s-.77,0-.78-.78c0-.26.07-.33.32-.32h3.37c.15,0,.27,0,.32-.2.25-1.2.53-2.4.81-3.65h-.78c-.12,0-.18,0-.19-.17-.11-.88-.08-.92.8-.93h.13c.12,0,.17,0,.17-.16V4a3.21,3.21,0,0,0-.64.56.56.56,0,0,1-.92,0c-.34-.33-.68-.66-1-1-.14-.15-.23-.16-.38,0-.31.33-.64.65-1,1s-.62.36-1,0-.66-.64-1-1c-.13-.14-.22-.14-.35,0-.31.32-.63.63-.95,1s-.64.41-1,0-.64-.62-1-.95c-.14-.16-.23-.15-.38,0-.32.35-.65.67-1,1a.56.56,0,0,1-.92,0c-.34-.33-.68-.66-1-1-.16-.18-.26-.15-.41,0-.32.34-.66.67-1,1a.56.56,0,0,1-.9,0c-.33-.32-.66-.64-1-1s-.3-.17-.48,0c-.3.33-.62.64-.94.95a.56.56,0,0,1-.92,0c-.32-.31-.64-.62-.95-.95-.17-.18-.28-.22-.47,0s-.64.66-1,1a.56.56,0,0,1-.9,0q-.51-.48-1-1c-.15-.16-.25-.19-.41,0-.31.34-.65.67-1,1a.56.56,0,0,1-.92,0l-.56-.58c-.08.72-.06,1.4-.08,2.08,0,.31.07.39.39.39H32.51c.72,0,.71,0,.73.73,0,.32-.09.37-.38.37H12.8c-.26,0-.33,0-.26.31.17.67.29,1.35.46,2a14.61,14.61,0,0,1,.46,3.9c-.05,2.18,0,4.35,0,6.53,0,1.09,0,2.17,0,3.26,0,.28,0,.4.34.3s.65-.13,1-.2c.77-.16.76-.16.93.6.06.27,0,.36-.28.4-.59.11-1.18.24-1.78.34a.35.35,0,0,0-.33.33c-.24,1.28-.49,2.56-.77,3.83-.07.33,0,.39.32.39h18c.74,0,.71,0,.74.73,0,.34-.11.38-.4.38H20.78c-2.69,0-5.38,0-8.07,0-.32,0-.39.08-.37.38,0,.59,0,1.19,0,1.78,0,.09,0,.21.09.32.18-.2.36-.41.55-.61a.56.56,0,0,1,.9,0c.31.31.63.61.92.93s.34.26.55,0,.61-.62.92-.93a.57.57,0,0,1,.92,0c.33.32.66.64,1,1,.16.17.26.19.43,0,.32-.35.66-.67,1-1a.56.56,0,0,1,.9,0c.34.33.69.67,1,1,.13.14.22.15.35,0l1-1c.35-.34.61-.34,1,0s.67.66,1,1c.13.13.21.14.33,0,.28-.3.58-.58.87-.87.53-.53.7-.53,1.22,0,.29.3.59.58.87.88.13.15.22.14.35,0,.33-.34.66-.67,1-1a.57.57,0,0,1,.94,0c.34.33.68.66,1,1,.15.16.23.15.38,0,.32-.35.65-.67,1-1a.56.56,0,0,1,.92,0c.33.32.66.64,1,1s.29.17.45,0c.32-.35.66-.67,1-1a.54.54,0,0,1,.84,0c.21.2.4.42.59.62"/><path class="cls-1" d="M20.62,21.48a6.07,6.07,0,0,1-1.15-1.11,5.67,5.67,0,0,1-.68-6.06,5.47,5.47,0,0,1,4.9-3.37,1.62,1.62,0,0,1,1.85,1.73,10.67,10.67,0,0,0,.61,3.67l.12.32a10.84,10.84,0,0,0,1-1.57,20.37,20.37,0,0,0,.91-2.15,1.45,1.45,0,0,1,2.46-.58,6.32,6.32,0,0,1,1.47,7.42,8.3,8.3,0,0,1-6.11,5,6,6,0,0,1-5.9-2c-.41-.44-.35-.77.18-1.07l.38-.23m-1.27-4.64a4.1,4.1,0,0,0,.25,1.51,4.62,4.62,0,0,0,6.89,2.35.52.52,0,0,0,.19-.77c-.2-.37-.41-.74-.62-1.11a12.29,12.29,0,0,1-1.62-6.12c0-.5-.21-.69-.7-.67a4.66,4.66,0,0,0-4.39,4.81m8.93-1.4a15.88,15.88,0,0,1-1.41,2.28c-.11.14,0,.24,0,.35.25.47.53.93.77,1.41a1.61,1.61,0,0,1-.58,2.13,5.8,5.8,0,0,1-5,.6,1,1,0,0,0-.23-.08.65.65,0,0,0-.53.27c-.07.09.15.2.25.28a5,5,0,0,0,3.9,1.06,7.21,7.21,0,0,0,4.7-2.84,5.89,5.89,0,0,0,1.29-5,5.1,5.1,0,0,0-1.58-2.67c-.27-.25-.52-.24-.64,0-.2.46-.37.93-.56,1.43h.47c.19,0,.26,0,.26.24,0,.88,0,.88-.84.86h0c-.15,0-.25,0-.23-.31"/><path class="cls-1" d="M35.43,7c0,.56,0,.56-.41.56-.69,0-.69,0-.69-.43,0-.67,0-.67.6-.67s.5,0,.5.54"/><path class="cls-1" d="M21.12,15.75c-.53,0-.53,0-.53-.61s0-.49.72-.49c.38,0,.38,0,.38.73,0,.37,0,.37-.57.37"/><path class="cls-1" d="M24.44,16.31c0,.54,0,.54-.4.54-.7,0-.7,0-.7-.41,0-.69,0-.69.72-.69.38,0,.38,0,.38.56"/><path class="cls-1" d="M22.79,18.5c0-.55,0-.55.69-.55.41,0,.41,0,.41.7,0,.4,0,.4-.72.4-.38,0-.38,0-.38-.55"/><path class="cls-1" d="M29.93,18c0,.54,0,.54-.39.54-.71,0-.71,0-.71-.44,0-.66,0-.66.62-.66s.48,0,.48.56"/></svg>