<svg xmlns="http://www.w3.org/2000/svg" viewBox="0 0 50 35"><defs><style>.cls-1{fill:#fea72d;}.cls-2{fill:none;}</style></defs><title>Asset 2</title><g id="Layer_2" data-name="Layer 2"><g id="Layer_1-2" data-name="Layer 1"><path class="cls-1" d="M22.82,35,23,35a.45.45,0,0,0,.34-.18,10.42,10.42,0,0,0,2.14-5.55.2.2,0,0,1,.21-.21,6.42,6.42,0,0,0,3.39-1.28,6.65,6.65,0,0,0,2.75-5.29v0c0-.37-.14-.5-.51-.51h-.06l-.81,0h-.11l.06-.08.11-.17h0a6.79,6.79,0,0,0,1.32-3.88v0c0-.38-.14-.52-.52-.52h0c-.27,0-.54,0-.81.05h-.09l0-.07.06-.14h0a6.78,6.78,0,0,0,1.35-3.89v-.1l0-.2c-.07-.2-.19-.28-.48-.28H31.2l-.79.05h-.1l.06-.08c.11-.17.2-.32.31-.47A6.64,6.64,0,0,0,31.8,8.54a.44.44,0,0,0-.5-.5A6.63,6.63,0,0,0,27.46,9.3c-.2.14-.39.3-.63.48l-.14.11.06-.17.08-.21A6.66,6.66,0,0,0,27.32,7a6.93,6.93,0,0,0-.16-1.49,6.64,6.64,0,0,0-1.78-3.26.49.49,0,0,0-.33-.16.46.46,0,0,0-.34.17,6.1,6.1,0,0,0-.95,1.21,6.78,6.78,0,0,0-1,3.47,7.31,7.31,0,0,0,.41,2.34c.06.18.14.37.22.6l.08.19-.16-.14-.17-.15A6.72,6.72,0,0,0,18.72,8h0c-.35,0-.49.15-.5.53a6.73,6.73,0,0,0,1,3.41c.13.22.28.43.45.68l.06.1-.11,0a6.52,6.52,0,0,0-.85-.06c-.4,0-.53.13-.54.5v0A6.74,6.74,0,0,0,19.45,17a1,1,0,0,1,.18.28v.07h-.07c-.28,0-.55-.05-.81-.05h0c-.39,0-.51.13-.52.51v0a6.67,6.67,0,0,0,1,3.37c.14.23.3.44.45.67l.05.09h-.1c-.3,0-.59,0-.88,0h0c-.35,0-.48.16-.49.51v.13a6.76,6.76,0,0,0,6.18,6.5l.15,0,.06.14v.06a9.66,9.66,0,0,1-1.9,4.91.58.58,0,0,0-.15.36.42.42,0,0,0,.28.39m1.81-15v.75H24.5l0,0a9.74,9.74,0,0,0-.56-.87l-.05-.09H24l.51,0h0v0l.13.11Zm0-4.63c0,.24,0,.48,0,.73v.15l-.09-.13c-.18-.29-.38-.56-.59-.87l-.06-.08H24l.54,0h0v0l.1.12Zm.86.2a.47.47,0,0,1,.06-.31c.06-.07.15-.08.29-.08h.28l-.05.07-.44.65,0,0h-.12v-.34Zm0,4.43V19.9l.1-.09h0l.41,0h.11l-.06.09-.48.7-.07.09,0-.11a1,1,0,0,1,0-.29c0-.09,0-.18,0-.26m0,5.36v-.16c0-.16,0-.29,0-.42v-.2l0,0,.09-.08h0L26,24.4h.11l-.06.09-.49.72Zm5.21-2.51h.06l.11,0,0,.1V23a5.65,5.65,0,0,1-1.17,2.91,5.8,5.8,0,0,1-3.81,2.25h-.26l-.1,0,0-.09V28a5.86,5.86,0,0,1,3.72-4.85,5.68,5.68,0,0,1,1.46-.36m-.23-4.6.25,0,.13,0,0,.14c0,.06,0,.13,0,.24a5.88,5.88,0,0,1-4.94,4.92l-.17,0h-.09l-.11,0-.05-.1v-.07h0A5.7,5.7,0,0,1,26.32,21a5.86,5.86,0,0,1,4-2.78Zm.21-4.65h.06l.12,0,0,.12v.06A5.9,5.9,0,0,1,26,18.91l-.22,0h-.11l-.1,0-.05-.1v-.07a5.69,5.69,0,0,1,.77-2.32A5.89,5.89,0,0,1,29.14,14a5.51,5.51,0,0,1,1.55-.39M30.16,9,30.64,9l.12,0,.11,0,.05.11,0,.1A5.89,5.89,0,0,1,27,14a6.4,6.4,0,0,1-1.21.27h-.07l-.11,0,0-.12v-.05a5.69,5.69,0,0,1,.75-2.27A5.85,5.85,0,0,1,30.16,9M23.63,7A5.91,5.91,0,0,1,24.9,3.33l.15-.1.15.1a5.85,5.85,0,0,1,1.26,3.61,6.69,6.69,0,0,1-.12,1.25,5.81,5.81,0,0,1-1,2.32c-.11.14-.15.22-.25.24s-.15-.1-.26-.24A5.77,5.77,0,0,1,23.63,7h0Zm-4.19,3.54a4.64,4.64,0,0,1-.35-1.49l0-.12.09,0h.08a5.63,5.63,0,0,1,3.12,1.34,5.77,5.77,0,0,1,2,3.63c0,.07,0,.14,0,.24v.06l-.05.09-.09,0h-.08a5.8,5.8,0,0,1-3.58-1.78,5.73,5.73,0,0,1-1.24-1.95m0,4.61a4.55,4.55,0,0,1-.34-1.41v-.06l0-.12.12,0h.05a5.49,5.49,0,0,1,2.3.76,5.93,5.93,0,0,1,2.66,3.34,4.14,4.14,0,0,1,.2,1.07h0v.07l0,.1-.11,0h-.08a5.8,5.8,0,0,1-4.8-3.74m-.31,3.47a2.4,2.4,0,0,1,0-.29l.05-.14.13,0,.29,0a5.92,5.92,0,0,1,4.92,5.18h0v0l-.05.1-.09,0h-.13a5.82,5.82,0,0,1-3.08-1.36,5.75,5.75,0,0,1-2-3.55m5.3,9.51-.11,0h-.05a5.82,5.82,0,0,1-3.6-1.8,5.57,5.57,0,0,1-1.53-3.1c0-.19-.07-.29-.07-.37l0-.1.09,0a2.17,2.17,0,0,1,.39.06,5.74,5.74,0,0,1,3.87,2.44,5.65,5.65,0,0,1,1,2.68v.07Zm.15-2.82h-.07v0l-.56-.84-.05-.07h.19c.16,0,.3,0,.43.05h0v0l.08.09v.78Z"/><rect class="cls-2" width="50" height="35"/></g></g></svg>