<svg xmlns="http://www.w3.org/2000/svg" viewBox="0 0 50 35"><defs><style>.cls-1{fill:#fea72d;}.cls-2{fill:none;}</style></defs><title>Asset 3</title><g id="Layer_2" data-name="Layer 2"><g id="Layer_1-2" data-name="Layer 1"><path class="cls-1" d="M39.08,26.14a.36.36,0,0,0,.31-.22l.06-.19c0-.11-.06-.22-.26-.34l-1-.58L38,24.66l.21-.22a1.32,1.32,0,0,1,.63-.36c.2,0,.39-.07.53-.12a1.85,1.85,0,0,0,.45-.17c.1-.07.12-.1.13-.2l0-.17a.33.33,0,0,0-.14-.22.32.32,0,0,0-.2-.05,1.91,1.91,0,0,0-.43.07l-2,.54h0a2.46,2.46,0,0,1-.49.1.9.9,0,0,1-.43-.12c-.77-.45-1.57-.87-2.48-1.38l-.38-.2.37-.22c1-.6,1.94-1.12,2.84-1.66a5.61,5.61,0,0,0,.52-.3c.14-.11.19-.18.19-.27a.61.61,0,0,0-.07-.23c-.13-.22-.19-.22-.27-.23a2,2,0,0,0-.72.34,8.85,8.85,0,0,0-1.43.85,3.43,3.43,0,0,1-2.2.93,3.82,3.82,0,0,1-2.26-.87,38.75,38.75,0,0,0-4.08-2.29L25.87,18l.33-.23c1.92-1.3,3.72-2.51,5.5-3.73h0a.78.78,0,0,1,.47-.16,1.11,1.11,0,0,1,.57.2L35.92,16a1.32,1.32,0,0,0,.56.24c.08,0,.14,0,.26-.22a.52.52,0,0,0,.07-.2.31.31,0,0,0-.13-.22,2.78,2.78,0,0,0-.38-.25L33.18,13.5l-.34-.19.33-.22c.88-.59,1.69-1.12,2.47-1.66a.75.75,0,0,1,.44-.15,1.87,1.87,0,0,1,.5.11l2.39.68.24,0a.39.39,0,0,0,.23-.06.38.38,0,0,0,.13-.22l0-.13a.24.24,0,0,0-.09-.2.9.9,0,0,0-.34-.16l-1.8-.54-.49-.14.42-.29c.59-.4,1.07-.7,1.52-1,.18-.13.27-.26.26-.36L39,8.78c-.12-.18-.2-.21-.31-.21a.67.67,0,0,0-.33.11c-.4.24-.79.51-1.34.86l-.51.32.14-.58c.15-.64.27-1.1.37-1.56l0-.21A.37.37,0,0,0,37,7.26a.38.38,0,0,0-.23-.14h-.12a.26.26,0,0,0-.21.09.77.77,0,0,0-.15.34c-.2.84-.42,1.67-.6,2.5a1.2,1.2,0,0,1-.55.84c-.6.38-1.19.78-1.77,1.19a.86.86,0,0,1-.48.19l-.24-.08L32.49,12a1.12,1.12,0,0,1-.07-.42c-.05-1-.12-2-.18-3a.89.89,0,0,0-.1-.44A.28.28,0,0,0,31.88,8h-.06c-.16,0-.21.05-.25.11a.55.55,0,0,0-.08.33v.11c.06.93,0,1.85.18,2.72a3.52,3.52,0,0,1,.06.63,2.24,2.24,0,0,1-.37,1.28,3.05,3.05,0,0,1-1.1.95c-1.46.82-2.82,1.85-4.38,2.88l-.37.25V13.09c0-1.19,0-2.35,0-3.52A.86.86,0,0,1,25.74,9a2.06,2.06,0,0,1,.41-.29l3.12-2a2.63,2.63,0,0,0,.39-.27.31.31,0,0,0,.12-.22A.39.39,0,0,0,29.69,6c-.12-.18-.18-.19-.26-.19a1.45,1.45,0,0,0-.6.28L26,7.83l-.3.18-.07-.34a7.45,7.45,0,0,1-.15-1.37,3.07,3.07,0,0,1,1.6-2.84,6.47,6.47,0,0,0,.73-.65h0a.7.7,0,0,0,.28-.42.36.36,0,0,0-.14-.26A.3.3,0,0,0,27.7,2a.73.73,0,0,0-.4.21L26,3.37l-.27.24-.12-.34a3.08,3.08,0,0,1-.11-.73c0-.22-.05-.34-.11-.39a.41.41,0,0,0-.28-.07c-.17,0-.23,0-.26.07a.38.38,0,0,0-.08.2,2.88,2.88,0,0,1-.18.93l-.14.28-.23-.21c-.48-.42-.91-.82-1.35-1.19A.54.54,0,0,0,22.56,2a.31.31,0,0,0-.26.13h0a.34.34,0,0,0-.1.23.49.49,0,0,0,.19.35,5.51,5.51,0,0,0,.72.67,3.31,3.31,0,0,1,1.67,2.81,3.65,3.65,0,0,1-.07.72v.2a.74.74,0,0,1-.08.39.4.4,0,0,1-.37.22,1,1,0,0,1-.5-.18C22.91,7,22,6.54,21.18,6a1.67,1.67,0,0,0-.6-.28c-.08,0-.14,0-.26.2h0a.45.45,0,0,0-.09.23c0,.07,0,.13.13.22a2.77,2.77,0,0,0,.4.27C21.85,7.31,22.92,8,24,8.58a1.34,1.34,0,0,1,.51.43,1.26,1.26,0,0,1,.19.71h0c0,1.06,0,2.12,0,3.18s0,2.23,0,3.34v0h0a1.94,1.94,0,0,1,0,.35.51.51,0,0,1-.17.32.41.41,0,0,1-.26.09,1.12,1.12,0,0,1-.51-.18c-1.43-.82-2.88-1.63-4.34-2.4a1.16,1.16,0,0,1-.46-.41,1,1,0,0,1-.13-.54v-.18c.1-1.19.17-2.39.27-3.6V9.53A.72.72,0,0,0,19,9.15.35.35,0,0,0,18.74,9h0c-.18,0-.22.05-.28.15a1.06,1.06,0,0,0-.11.5c-.06,1-.14,2-.19,3a2.79,2.79,0,0,1,0,.32.51.51,0,0,1-.19.28l-.24.07a1,1,0,0,1-.42-.12,8.11,8.11,0,0,1-2.34-1.46,4,4,0,0,1-1.21-2.57s-.05-.12-.1-.29a1.13,1.13,0,0,0-.17-.38.27.27,0,0,0-.22-.1l-.15,0a.5.5,0,0,0-.23.12l0,.18a2,2,0,0,0,.09.46,4.22,4.22,0,0,1,.3,1.16v.32l-.25,0h0a1.29,1.29,0,0,1-.66-.19c-.18-.1-.32-.19-.45-.25a1,1,0,0,0-.39-.11c-.12,0-.17,0-.27.18h0l-.06.2.07.19a1.14,1.14,0,0,0,.25.21c.26.18.75.27,1.07.76l.17.28-.32.08c-.59.15-1.14.27-1.69.42a1.22,1.22,0,0,0-.39.15.24.24,0,0,0-.11.2l0,.16a.42.42,0,0,0,.16.24.4.4,0,0,0,.24.06,1.11,1.11,0,0,0,.29,0,12.55,12.55,0,0,0,1.63-.4,3.16,3.16,0,0,1,1.15-.24,3.67,3.67,0,0,1,1.9.62c.58.33,1.12.72,1.71,1l.41.19-.38.24c-1.11.68-2,1.28-3,1.85a1.43,1.43,0,0,0-.34.26l-.11.22a.46.46,0,0,0,.07.21c.11.17.17.19.27.19a1,1,0,0,0,.52-.21l3.21-2a1.09,1.09,0,0,1,.61-.23.81.81,0,0,1,.41.12c1.67.94,3.34,1.86,5.13,2.85l.35.19L24,18.3c-1.57,1.05-3.06,2-4.54,3.05h0a.73.73,0,0,1-.43.14,1.31,1.31,0,0,1-.6-.21c-1.13-.56-2.25-1.13-3.37-1.7a1.62,1.62,0,0,0-.63-.24l-.13,0a.59.59,0,0,0-.15.21h0l-.05.2c0,.09,0,.15.14.24a3,3,0,0,0,.45.25l3.15,1.58.32.16-.28.24c-1.32,1.12-2.65,2.22-4.35,2.22a4.39,4.39,0,0,1-1.76-.39c-.09,0-.3,0-.55-.08L11,24a.31.31,0,0,0-.37.32h0v.1a.26.26,0,0,0,.12.24,1.14,1.14,0,0,0,.42.14l1.87.33.57.11-.48.33c-.51.36-.85.6-1.2.83a1.41,1.41,0,0,0-.31.26l-.1.21a.43.43,0,0,0,.1.24.29.29,0,0,0,.25.16,1.16,1.16,0,0,0,.48-.2,2.57,2.57,0,0,1,1.13-.57l.36-.05-.1.35c-.17.62-.33,1.2-.5,1.77h0a.71.71,0,0,0-.05.27.29.29,0,0,0,.07.22.5.5,0,0,0,.26.15l.13,0a.23.23,0,0,0,.2-.1.83.83,0,0,0,.17-.34,10.85,10.85,0,0,0,.53-1.85A3.17,3.17,0,0,1,16,24.57a22.85,22.85,0,0,0,2.23-1.5l.45-.41-.05.6c-.1,1.39-.19,2.47-.27,3.55,0,.2-.05.39-.05.56a.62.62,0,0,0,.07.33c0,.05.11.1.32.12h.05a.32.32,0,0,0,.22-.06.27.27,0,0,0,.09-.17,4.74,4.74,0,0,0,.06-.72c.11-1.25.18-2.5.26-3.76a1.78,1.78,0,0,1,.13-.64,1.24,1.24,0,0,1,.49-.56c1.24-.8,2.46-1.65,3.7-2.48l.17-.14a.52.52,0,0,1,.35-.14.46.46,0,0,1,.27.09.56.56,0,0,1,.18.23l0,.23c0,.13,0,.23,0,.3v3.08c0,.91,0,1.84,0,2.75h0a1.19,1.19,0,0,1-.16.65,1.27,1.27,0,0,1-.51.43c-1,.48-2,1-3,1.51a3.29,3.29,0,0,0-.8.43l-.05.14a.55.55,0,0,0,.09.27c.12.22.19.23.28.24a.8.8,0,0,0,.35-.12l.45-.25c.8-.38,1.58-.79,2.36-1.2a1,1,0,0,1,.48-.16.43.43,0,0,1,.38.23,1,1,0,0,1,.1.46,7.69,7.69,0,0,1,0,.83,4,4,0,0,1-1.53,3.44,7.41,7.41,0,0,0-1,1.11c-.19.21-.32.4-.31.5s0,.14.15.26a.38.38,0,0,0,.25.13l.21-.08a3.67,3.67,0,0,0,.28-.28l1.48-1.66.42-.47v1.69c0,.19,0,.37,0,.55a.72.72,0,0,0,.09.39.35.35,0,0,0,.3.12c.17,0,.22,0,.27-.13a.81.81,0,0,0,.11-.41V34.3c0-.14,0-.3,0-.47a2.23,2.23,0,0,1,.15-.84l.15-.36.26.3c.52.59,1,1.12,1.41,1.61a.44.44,0,0,0,.33.18.35.35,0,0,0,.24-.11.32.32,0,0,0,.14-.26A.53.53,0,0,0,28,34a9.32,9.32,0,0,0-1.08-1.27,4.1,4.1,0,0,1-1.49-3.4,7.57,7.57,0,0,1,0-.81,1.54,1.54,0,0,1,.05-.31A.52.52,0,0,1,25.7,28l.24-.08a.91.91,0,0,1,.43.14c.83.45,1.67.86,2.52,1.28a1.22,1.22,0,0,0,.5.18l.13,0a.35.35,0,0,0,.14-.18.44.44,0,0,0,.05-.19l-.12-.23a1.56,1.56,0,0,0-.38-.24c-1.05-.52-2.09-1.07-3.14-1.57a1.44,1.44,0,0,1-.48-.37,1.07,1.07,0,0,1-.18-.63c0-1.06,0-2.11,0-3.17s0-2.06,0-3.09a1.28,1.28,0,0,1,0-.36.44.44,0,0,1,.18-.29l.23-.07a1.08,1.08,0,0,1,.5.18q2.54,1.43,5.1,2.81a1.11,1.11,0,0,1,.44.39A1,1,0,0,1,32,23v.11h0c-.08,1.25-.12,2.51-.18,3.77h0V27a.86.86,0,0,0,.08.42c0,.07.11.12.31.13h0c.19,0,.22,0,.27-.13a1.06,1.06,0,0,0,.1-.47c0-1,.09-2.06.12-3.08a1.29,1.29,0,0,1,0-.35.5.5,0,0,1,.18-.31l.26-.08a.93.93,0,0,1,.48.17,11.15,11.15,0,0,0,1.47.8,1.81,1.81,0,0,1,1.14,1.45c.15.76.38,1.52.58,2.31a.9.9,0,0,0,.16.34.27.27,0,0,0,.22.09h.12a.43.43,0,0,0,.25-.13.37.37,0,0,0,.06-.24,1,1,0,0,0,0-.28,8,8,0,0,1-.35-1.82v-.11l0-.38.34.18,1.13.59a.51.51,0,0,0,.25.08"/><rect class="cls-2" width="50" height="35"/></g></g></svg>