<svg id="Layer_1" data-name="Layer 1" xmlns="http://www.w3.org/2000/svg" viewBox="0 0 50 35"><defs><style>.cls-1{fill:#faa630;}</style></defs><path class="cls-1" d="M12,24.23A.39.39,0,0,0,11.9,24a.41.41,0,0,0-.29-.13h0a.41.41,0,0,0-.4.39v0a.4.4,0,0,0,.39.41.48.48,0,0,0,.31-.12.4.4,0,0,0,.12-.29"/><path class="cls-1" d="M12.07,7.93a10.16,10.16,0,0,0-4.49,2.76,7.3,7.3,0,0,0-1.89,5A11,11,0,0,0,6,18.32a8.37,8.37,0,0,0,1.9,3.6.42.42,0,0,0,.33.17L8.47,22a.44.44,0,0,0,.21-.37l0-.12a1.3,1.3,0,0,0-.26-.36A8.26,8.26,0,0,1,6.53,16a9.33,9.33,0,0,1,.12-1.48A6.25,6.25,0,0,1,8,11.41a8,8,0,0,1,2.64-2A19.79,19.79,0,0,1,18.44,7.6c.84-.06,1.69-.08,2.53-.08A44.56,44.56,0,0,1,31,8.71a36.7,36.7,0,0,1,9.44,3.53A7.16,7.16,0,0,1,42.62,14a1.78,1.78,0,0,1,.47,1.14,1.77,1.77,0,0,1-.59,1.22,4.76,4.76,0,0,1-1,.78,14,14,0,0,1-5.13,1.75,35.55,35.55,0,0,0-5.9,1.24,52.72,52.72,0,0,0-7.1,3.08A15.42,15.42,0,0,1,16.59,25c-.31,0-.62,0-.93,0h-.05a.36.36,0,0,0-.37.37h0v0a.41.41,0,0,0,.09.26.6.6,0,0,0,.33.15,4.55,4.55,0,0,0,.53,0h.45a13,13,0,0,0,3.55-.5A33.92,33.92,0,0,0,25.68,23a30.41,30.41,0,0,1,9.69-3.13,19.1,19.1,0,0,0,5.29-1.38,6.83,6.83,0,0,0,2.71-1.87,2.35,2.35,0,0,0,.56-1.48,2.47,2.47,0,0,0-.41-1.31,5.21,5.21,0,0,0-1-1.15,15.52,15.52,0,0,0-3.75-2.17,43.79,43.79,0,0,0-17.44-3.8,28.74,28.74,0,0,0-9.24,1.26"/><path class="cls-1" d="M35.5,5.87a.39.39,0,0,0,.12.28.45.45,0,0,0,.28.13.48.48,0,0,0,.3-.13.45.45,0,0,0,.12-.29.39.39,0,0,0-.41-.4h0a.4.4,0,0,0-.39.41"/><path class="cls-1" d="M3.25,26.81a14.45,14.45,0,0,0,5.27,5.92A16,16,0,0,0,16.13,35l.81,0a17.71,17.71,0,0,0,7.57-1.91c1.86-.88,3.72-1.84,5.66-2.64A31.62,31.62,0,0,1,38,28.67a15.56,15.56,0,0,0,6.56-2.29,7,7,0,0,0,3.18-4.15c.09-.31.15-.65.23-1V14.4a7,7,0,0,0-1.23-2.63A17.72,17.72,0,0,0,39.87,7h0l-.14,0a.39.39,0,0,0-.34.26h0l0,.17a.39.39,0,0,0,.22.34,5.89,5.89,0,0,0,.66.32,17.39,17.39,0,0,1,5.56,3.89,4.83,4.83,0,0,1,1.35,3.27,5.65,5.65,0,0,1-.87,2.88,6.9,6.9,0,0,1-2.71,2.47,16.2,16.2,0,0,1-6.19,1.89,28.06,28.06,0,0,0-8.9,2.37c-1.45.67-2.89,1.37-4.34,2.06a17.21,17.21,0,0,1-7.45,1.81,15.37,15.37,0,0,1-3.33-.37C7.78,27,3.36,22.55,2.92,16.91c0-.38,0-.74,0-1.1A10,10,0,0,1,7,7.4a18.1,18.1,0,0,1,8.4-3.18,34.6,34.6,0,0,1,5.36-.38,47.42,47.42,0,0,1,8,.71c1.06.18,2.09.42,3.1.59H32a.3.3,0,0,0,.23-.08.37.37,0,0,0,.13-.25V4.73c0-.16-.08-.29-.34-.39l-.19,0A50.64,50.64,0,0,0,20.9,3a37.71,37.71,0,0,0-5.4.38A20.89,20.89,0,0,0,8,5.75a11,11,0,0,0-5.53,6.67c-.22.74-.3,1.56-.47,2.41v7.59a2.44,2.44,0,0,1,.08.37,11.12,11.12,0,0,0,1.13,4m.69-4.14c.34.47.64.93,1,1.33a14.72,14.72,0,0,0,10.31,5.42c.51,0,1,.08,1.51.08a17.84,17.84,0,0,0,7.59-1.83c1.45-.68,2.89-1.38,4.34-2.07a27.49,27.49,0,0,1,8.68-2.34A16,16,0,0,0,45,20.59a11.06,11.06,0,0,0,1.27-1.11l.76-.76.09,1.07c0,.22,0,.45,0,.67a5.57,5.57,0,0,1-.85,3.09,8.39,8.39,0,0,1-4.14,3.16,22.21,22.21,0,0,1-6,1.38A26.32,26.32,0,0,0,28,30.5a64.25,64.25,0,0,1-5.87,2.68,17.09,17.09,0,0,1-5.58,1,14.28,14.28,0,0,1-8.42-2.79A11.91,11.91,0,0,1,3,23l-.27-2Z"/><path class="cls-1" d="M20.37,18.17a2.09,2.09,0,0,0-1.07-1.71,4.86,4.86,0,0,0-2.68-.72,4.9,4.9,0,0,0-2.72.74,2.09,2.09,0,0,0-1.05,1.69,2.11,2.11,0,0,0,1.06,1.69,5,5,0,0,0,2.71.75,5.11,5.11,0,0,0,2.66-.72,2.1,2.1,0,0,0,1.09-1.72m-3.74,1.61h0a4,4,0,0,1-2.36-.71,1.3,1.3,0,0,1-.37-.37.87.87,0,0,1-.18-.53,1,1,0,0,1,.18-.54,1.45,1.45,0,0,1,.37-.37h0a4,4,0,0,1,2.38-.69,4,4,0,0,1,2.38.69,1.44,1.44,0,0,1,.36.38.93.93,0,0,1,.17.53,1,1,0,0,1-.17.54,1.67,1.67,0,0,1-.38.37,4,4,0,0,1-2.35.7"/></svg>