<svg id="Layer_1" data-name="Layer 1" xmlns="http://www.w3.org/2000/svg" viewBox="0 0 50 35"><defs><style>.cls-1{fill:#faa630;}</style></defs><path class="cls-1" d="M9.18,26.43a.37.37,0,0,0-.12.31.36.36,0,0,0,.12.3.59.59,0,0,0,.4.12h5.64c.36,0,.52-.17.53-.42a.37.37,0,0,0-.13-.3.68.68,0,0,0-.42-.12H9.6v0a.73.73,0,0,0-.42.11"/><path class="cls-1" d="M12.4,20.46a2.88,2.88,0,0,0-2,.8,2,2,0,0,0-.63,1.43,2,2,0,0,0,.62,1.43,2.71,2.71,0,0,0,1.91.8h.06a2.87,2.87,0,0,0,2-.7,2,2,0,0,0,.06-3,2.86,2.86,0,0,0-2-.77m1.38,3.15a2.14,2.14,0,0,1-1.36.49h0A2.14,2.14,0,0,1,11,23.58a1.16,1.16,0,0,1,0-1.76,2.08,2.08,0,0,1,1.43-.52,2.12,2.12,0,0,1,1.41.49,1.27,1.27,0,0,1,.42.9,1.19,1.19,0,0,1-.45.92"/><path class="cls-1" d="M40.91,29.81h1a1.71,1.71,0,0,0,1.33-.59,3.32,3.32,0,0,0,.42-.77V27.39A15.87,15.87,0,0,1,43,22.9a14.6,14.6,0,0,1,.67-4.35V17.42a2.47,2.47,0,0,0-1.3-1.66.3.3,0,0,1-.17-.28V15a.73.73,0,0,1,.36-.7l.09-.19a.48.48,0,0,0-.19-.37,1.07,1.07,0,0,1-.28-.73l.05-.23h0a.29.29,0,0,1,.27-.16l.14,0h.15a.89.89,0,0,0,.88-.59V9.57l-.06-.14h0a2.17,2.17,0,0,0-2.12-1.7l-3.63,0c-1.13,0-2.25,0-3.37,0A2.18,2.18,0,0,0,32.3,10v1.79a1,1,0,0,0,.22.68,1,1,0,0,0,.7.23c.06,0,.15,0,.25,0l.18,0,.1.2a3.09,3.09,0,0,1,0,.4.5.5,0,0,1-.26.46.42.42,0,0,0-.22.35.48.48,0,0,0,.21.36.8.8,0,0,1,.26.64.84.84,0,0,1-.33.73,2.21,2.21,0,0,0-1.16,2h0v.06a8.63,8.63,0,0,0,.34,2.36A9.75,9.75,0,0,1,33,22.94a10.5,10.5,0,0,1-.11,1.47,19.84,19.84,0,0,0-.54,2.7.9.9,0,0,1-.29.71,2.6,2.6,0,0,1-.56.35h0l-.17,0-.17-.11,0-.17V21.33c0-1.89,0-3.79,0-5.68a3.26,3.26,0,0,0-.87-2.32,2.33,2.33,0,0,1-.62-1.62c0-.53,0-1.06,0-1.59s0-1,0-1.53a.76.76,0,0,1,.29-.65,3.48,3.48,0,0,0-.19-5.4,1.13,1.13,0,0,0-.63-.27h-3.4c-.24,0-.35.12-.38.37h0v0a.36.36,0,0,0,.32.38,1.72,1.72,0,0,0,.33,0h2.76a1,1,0,0,1,.67.26,2.64,2.64,0,0,1,.87,2A2.63,2.63,0,0,1,29.71,7a1.37,1.37,0,0,1-1.14.54H25.41c-1,0-2,0-3,0h0a1.49,1.49,0,0,1-1.25-.65,2.69,2.69,0,0,1,.29-3.49,1,1,0,0,1,.75-.33h.44a3.24,3.24,0,0,0,.44,0,.39.39,0,0,0,.38-.39v0a.39.39,0,0,0-.12-.28.43.43,0,0,0-.29-.1H22a1.56,1.56,0,0,0-1,.43,3.45,3.45,0,0,0,0,5.24.79.79,0,0,1,.29.66c0,.56,0,1.13,0,1.69s0,1,0,1.46a2.28,2.28,0,0,1-.62,1.62,3.17,3.17,0,0,0-.86,2.25v0h0c0,.74,0,1.47,0,2.2v3.05c0,1.41,0,2.82,0,4.23,0,1.06,0,2.12,0,3.18a1.51,1.51,0,0,0,1.58,1.59H22a.47.47,0,0,1,.43.25A9.59,9.59,0,0,0,31,35c.39,0,.8,0,1.21,0a8.36,8.36,0,0,0,2.3-.58A.4.4,0,0,0,34.8,34l0-.15a.38.38,0,0,0-.39-.27l-.14,0a2.63,2.63,0,0,0-.3.1,8.78,8.78,0,0,1-3,.5,9.06,9.06,0,0,1-8.26-5.32,1.08,1.08,0,0,1-.14-.38l0-.11,0-.06.06,0h.09a.57.57,0,0,1,.31.16,8.73,8.73,0,0,0,11.43-1.58A2.36,2.36,0,0,1,36.29,26a2.54,2.54,0,0,1,1.36.42l.16.1-.15.11-.17.13h0a.45.45,0,0,0-.21.37l.06.2a.36.36,0,0,0,.33.2l.24-.06a1,1,0,0,0,.26-.15.43.43,0,0,1,.26-.11.33.33,0,0,1,.29.22,2.29,2.29,0,0,1,.36,1.18,2.13,2.13,0,0,1-.28,1,9.3,9.3,0,0,1-2.32,2.68.54.54,0,0,0-.27.42.42.42,0,0,0,.1.25.37.37,0,0,0,.29.14A.69.69,0,0,0,37,33a9.1,9.1,0,0,0,2.41-2.76.69.69,0,0,1,.67-.4h.82M22.19,8.48a.49.49,0,0,1,.33-.09h5.85a.48.48,0,0,1,.33.08.41.41,0,0,1,.12.34v0h0c0,.32,0,.64,0,1s0,.73,0,1.09a.44.44,0,0,1-.1.32.45.45,0,0,1-.32.09H22.51a.47.47,0,0,1-.31-.08.43.43,0,0,1-.11-.33c0-.36,0-.71,0-1.07s0-.67,0-1a.41.41,0,0,1,.1-.33m8.12,16.8a.36.36,0,0,1-.15.34.45.45,0,0,1-.29.06H21.11a.5.5,0,0,1-.4-.13.57.57,0,0,1-.1-.39c0-1.19,0-2.39,0-3.58s0-2.35,0-3.53a.55.55,0,0,1,.12-.41.43.43,0,0,1,.36-.13h.08l.61,0h.78a1.1,1.1,0,0,0,.6-.14,1,1,0,0,0,.33-.51,2.1,2.1,0,0,1,1.94-1.37,2.07,2.07,0,0,1,2,1.36,1.13,1.13,0,0,0,.35.52,1,1,0,0,0,.62.14h1.51a.46.46,0,0,1,.32.1.51.51,0,0,1,.1.32c0,1.22,0,2.44,0,3.66s0,2.45,0,3.67m0,1.7h0c0,.19,0,.38,0,.58s0,.46,0,.69h0a.53.53,0,0,1-.1.36.64.64,0,0,1-.33.19,8.82,8.82,0,0,1-2,.24,7.82,7.82,0,0,1-4.32-1.32,1.8,1.8,0,0,0-.64-.31h-.15a1,1,0,0,0-1,1v.16h0v.15a.3.3,0,0,1-.09.26l-.24.07h-.14a.73.73,0,0,1-.48-.2.77.77,0,0,1-.18-.49v-.88c0-.16,0-.31,0-.47v-.06a.41.41,0,0,1,.12-.33.5.5,0,0,1,.35-.09h8.75a.51.51,0,0,1,.35.09.4.4,0,0,1,.13.33Zm0-10.56a.28.28,0,0,1-.14.24l-.2,0H28.54a.42.42,0,0,1-.27-.09l-.14-.19a2.92,2.92,0,0,0-5.34,0l-.16.21a.46.46,0,0,1-.28.08H21a.37.37,0,0,1-.28-.1.45.45,0,0,1-.1-.27c0-.15,0-.29,0-.43a2.91,2.91,0,0,1,.87-2.26A1.93,1.93,0,0,0,22,12.57a.45.45,0,0,1,.19-.35.62.62,0,0,1,.35-.08h5.89a.5.5,0,0,1,.32.08.4.4,0,0,1,.17.3,2.84,2.84,0,0,0,.76,1.4,2.55,2.55,0,0,1,.64,1.91c0,.2,0,.4,0,.59m3.32-4.58a.64.64,0,0,1-.37-.1.42.42,0,0,1-.12-.34v-.06c0-.15,0-.3,0-.45V10a1.37,1.37,0,0,1,1.44-1.4h6.77A1.39,1.39,0,0,1,42.81,10h0v.15c0,.23,0,.47,0,.7s0,.33,0,.5h0v.05a.4.4,0,0,1-.13.33.65.65,0,0,1-.35.09H33.62m1,1.32h0v-.1a.36.36,0,0,1,.1-.29.44.44,0,0,1,.35-.11H38l2.89,0a.41.41,0,0,1,.4.19.69.69,0,0,1,.05.34h0v.07a.45.45,0,0,1-.08.31.41.41,0,0,1-.35.13H35a.39.39,0,0,1-.34-.14.53.53,0,0,1-.07-.28v-.12Zm0,1.85v-.13l.08-.25a.44.44,0,0,1,.33-.11h5.92a.43.43,0,0,1,.31.09l.09.23v.23h0v.11a.32.32,0,0,1-.11.27.53.53,0,0,1-.31.07H36.34l-1.31,0a.44.44,0,0,1-.33-.11l-.09-.27V15Zm.22,10.08a.63.63,0,0,1-.32.62c-.36.21-.6.6-1,.9l-.27.2.08-.33c.13-.52.27-1,.37-1.55a10.57,10.57,0,0,0-.24-5,7.94,7.94,0,0,1-.29-2.06,1.5,1.5,0,0,1,.41-1.09,1.46,1.46,0,0,1,1.08-.41h6.7a1.44,1.44,0,0,1,1.07.41,1.5,1.5,0,0,1,.41,1.07,9.24,9.24,0,0,1-.24,1.91.49.49,0,0,1-.18.31.54.54,0,0,1-.34.09H35.86a1.08,1.08,0,0,0-.79.23,1,1,0,0,0-.23.78v3.91m4.13.15a.7.7,0,0,1-.6.48.83.83,0,0,1-.36-.09,4.14,4.14,0,0,0-1.81-.45H36a.24.24,0,0,1-.24-.12l0-.21V21.35a.35.35,0,0,1,.1-.27L36,21h5.89a.37.37,0,0,1,.25.07l.09.23v.12A9.86,9.86,0,0,0,42.08,23a10.42,10.42,0,0,0,.26,2.28h0a1,1,0,0,1,0,.2l-.08.18-.21.06H39.76l0-.16c.1-.4.23-.73.28-1.08a4.46,4.46,0,0,0,.05-.63,4.19,4.19,0,0,0-.37-1.69c-.14-.3-.28-.4-.43-.4l-.17,0a.36.36,0,0,0-.26.35,1,1,0,0,0,.09.35,3.36,3.36,0,0,1,.3,1.37A3.48,3.48,0,0,1,39,25.24M40,28.92l-.1-.21V28.6a2.68,2.68,0,0,0-.16-.93,4.59,4.59,0,0,0-.49-1l-.11-.19h3.2a.32.32,0,0,1,.25.08l.11.24a9.26,9.26,0,0,1,.09,1.07v.23A.85.85,0,0,1,42,29H40.19Z"/><path class="cls-1" d="M22.66,20.11a.38.38,0,0,0-.13.29.4.4,0,0,0,.13.32.61.61,0,0,0,.4.12h4.79a.63.63,0,0,0,.41-.12.43.43,0,0,0,.13-.32.33.33,0,0,0-.13-.28.69.69,0,0,0-.41-.12H23.06v0a.74.74,0,0,0-.4.11"/><path class="cls-1" d="M28.39,22.66a.36.36,0,0,0-.13-.29.6.6,0,0,0-.4-.11h-4.8a.58.58,0,0,0-.4.11.36.36,0,0,0-.13.29.37.37,0,0,0,.12.31.67.67,0,0,0,.43.11h4.76a.64.64,0,0,0,.42-.12.33.33,0,0,0,.13-.3"/><path class="cls-1" d="M8,29.88h8.91a1.49,1.49,0,0,0,1.59-1.58V22.51a2.4,2.4,0,0,0-.68-1.7c-.32-.34-.64-.67-1-1a2.28,2.28,0,0,1,0-3.27c.34-.38.7-.74,1.05-1.12a2.11,2.11,0,0,0,.56-1.24c0-.32,0-.64,0-1s0-.59,0-.89A1.43,1.43,0,0,0,17.14,11a4.7,4.7,0,0,0-.53,0h-.32a.42.42,0,0,1-.28-.08.34.34,0,0,1-.11-.28v0c0-.16,0-.32,0-.47V9.55A.41.41,0,0,1,16,9.27a.62.62,0,0,1,.25-.15A1.09,1.09,0,0,0,17,8c0-.29,0-.58,0-.87s0-.52,0-.78A1.08,1.08,0,0,0,15.9,5.18l-3.52,0H8.9A1.12,1.12,0,0,0,7.76,6.34c0,.27,0,.53,0,.8s0,.59,0,.88c0,.45.17.85.54,1a.86.86,0,0,1,.5.34.84.84,0,0,1,.12.48c0,.09,0,.19,0,.28v.25h0v.24a.45.45,0,0,1-.05.28.34.34,0,0,1-.28.1l-.28,0H8.08a1.66,1.66,0,0,0-1.73,1.21v2.08a5,5,0,0,0,1.58,2.23,2.52,2.52,0,0,1,.69,1.22,2.94,2.94,0,0,1,.05.51,2.31,2.31,0,0,1-.6,1.53c-.21.24-.43.48-.66.7a3.44,3.44,0,0,0-1.06,1.7v1.62c.12.18.25.3.4.3l.16,0c.23-.09.27-.25.28-.52V22.7h0v-.14a1.7,1.7,0,0,1,.56-1.27c.29-.29.56-.6.85-.91a3.06,3.06,0,0,0,.74-1.18,3.91,3.91,0,0,0,.17-1.09,3.2,3.2,0,0,0-1-2.26A4.74,4.74,0,0,1,7.76,15l-.12-.19H9.3a.39.39,0,0,0,.43-.39.4.4,0,0,0-.4-.42H8.49C8.28,14,8,14,7.78,14a.68.68,0,0,1-.47-.15.69.69,0,0,1-.17-.51c0-.24.06-.51.06-.72v-.07A.79.79,0,0,1,7.4,12,.93.93,0,0,1,8,11.78h8.73a.92.92,0,0,1,.66.2.88.88,0,0,1,.2.65h0v.55c0,.1,0,.21,0,.31h0v.05a.37.37,0,0,1-.14.32.51.51,0,0,1-.33.08H12c-.35,0-.5.15-.52.39h0v0c0,.23.17.39.53.4h4.63a.85.85,0,0,1,.33.07l.15.08-.11.12c-.34.37-.68.72-1,1.08a3.1,3.1,0,0,0,0,4.07c.35.4.72.79,1.09,1.18a1.58,1.58,0,0,1,.47,1.11v5.79a.78.78,0,0,1-.2.57.79.79,0,0,1-.56.18H8a.76.76,0,0,1-.57-.19.78.78,0,0,1-.19-.56v-1.8h0v0a.9.9,0,0,0-.06-.36.4.4,0,0,0-.25-.2l-.13,0c-.15,0-.28.11-.4.29v2.49A1.59,1.59,0,0,0,8,29.88m7.12-19.36h0v0a.33.33,0,0,1-.13.31.48.48,0,0,1-.31.07H10.16a.48.48,0,0,1-.31-.08.34.34,0,0,1-.11-.29v-.05c0-.16,0-.32,0-.47s0-.31,0-.47v0a.31.31,0,0,1,.13-.3.51.51,0,0,1,.3-.07h4.46a.58.58,0,0,1,.32.07.35.35,0,0,1,.12.31v.06h0c0,.15,0,.3,0,.45s0,.3,0,.45m-.94-2.17h-5a.55.55,0,0,1-.39-.11.44.44,0,0,1-.14-.37v0c0-.21,0-.42,0-.63s0-.48,0-.72h0a.49.49,0,0,1,.12-.36A.48.48,0,0,1,9.06,6h6.67a.46.46,0,0,1,.35.11.48.48,0,0,1,.12.36h0c0,.24,0,.48,0,.73s0,.44,0,.65v0a.46.46,0,0,1-.14.37.62.62,0,0,1-.38.09H14.13"/></svg>