<svg id="Layer_1" data-name="Layer 1" xmlns="http://www.w3.org/2000/svg" viewBox="0 0 50 35"><defs><style>.cls-1{fill:#faa630;}</style></defs><path class="cls-1" d="M41,19.1v-.21a1.44,1.44,0,0,0-.12-.2c-.23-.22-.43-.44-.63-.64q-1.76-1.76-3.52-3.5h0a1,1,0,0,1-.22-.34,1,1,0,0,1-.07-.37V10.71c0-.83,0-1.66,0-2.49v0a.73.73,0,0,0-.16-.48.68.68,0,0,0-.48-.16H30.16a1.1,1.1,0,0,1-.38-.07,1.07,1.07,0,0,1-.32-.22L25.39,3.2a.48.48,0,0,0-.78,0c-1.34,1.34-2.69,2.68-4,4h0a1.14,1.14,0,0,1-.35.24,1.11,1.11,0,0,1-.43.09H14.16a.6.6,0,0,0-.45.15.67.67,0,0,0-.17.47c0,.86,0,1.73,0,2.59s0,1.56,0,2.34c0,.25,0,.5,0,.76a1,1,0,0,1-.07.36.74.74,0,0,1-.21.31c-1.18,1.18-2.37,2.35-3.54,3.54a3.69,3.69,0,0,0-.74.82v.21a1.48,1.48,0,0,0,.35.45c1.31,1.3,2.61,2.62,3.92,3.92a1.13,1.13,0,0,1,.22.32,1,1,0,0,1,.07.37c0,1,0,2,0,3V30a.53.53,0,0,0,.13.37.53.53,0,0,0,.37.13h5.73a1.16,1.16,0,0,1,.43.08,1,1,0,0,1,.38.25l3.89,3.9a1.43,1.43,0,0,0,.41.32h.23a3.65,3.65,0,0,0,.82-.74q1.75-1.74,3.5-3.51a1,1,0,0,1,.74-.3H36a.49.49,0,0,0,.37-.13.54.54,0,0,0,.13-.35V24.16a1,1,0,0,1,.06-.38,1.23,1.23,0,0,1,.22-.31l3.94-3.93A1.71,1.71,0,0,0,41,19.1m-1.51.24-.14.18c-1.19,1.18-2.37,2.37-3.57,3.55a.81.81,0,0,0-.28.66c0,.78,0,1.55,0,2.33v2.73h0a.77.77,0,0,1-.09.4.61.61,0,0,1-.42.3l-.22,0h-5.2a.53.53,0,0,0-.45.21l-2.72,2.72q-.46.45-.9.9h0l-.16.13a.62.62,0,0,1-.34.1.64.64,0,0,1-.33-.09l-.17-.14Q23,31.82,21.43,30.29c-.2-.21-.41-.41-.61-.61a.48.48,0,0,0-.38-.16H15.21a1,1,0,0,1-.39-.09.64.64,0,0,1-.31-.42l0-.22V23.65a.62.62,0,0,0-.21-.52L10.7,19.56h0l-.15-.16A.65.65,0,0,1,10.4,19a.73.73,0,0,1,.15-.4l.16-.16,3.61-3.62h0a.61.61,0,0,0,.17-.46V9.25a.88.88,0,0,1,.07-.38A.6.6,0,0,1,15,8.53a.83.83,0,0,1,.26,0h5.05a.81.81,0,0,0,.64-.27C22.1,7,23.29,5.86,24.48,4.67h0l.18-.14A.65.65,0,0,1,25,4.41a.59.59,0,0,1,.33.1l.19.15c1.18,1.2,2.38,2.39,3.57,3.59a.77.77,0,0,0,.61.25h5.07a.77.77,0,0,1,.39.08.63.63,0,0,1,.33.42,1.1,1.1,0,0,1,0,.24h0v5.08a.71.71,0,0,0,.22.56c1.22,1.2,2.41,2.41,3.62,3.6h0l.14.18a.65.65,0,0,1,.1.34.59.59,0,0,1-.1.33"/><path class="cls-1" d="M27.35,15.94c-.22.42-.41.82-.63,1.21a8.84,8.84,0,0,1-1.59,2.19,2.17,2.17,0,0,1-1.69.76,1.82,1.82,0,0,1-1.23-.68c-.08-.09,0-.17,0-.24a3.51,3.51,0,0,1,.76-.57c.54-.31,1.1-.57,1.63-.92a.34.34,0,0,0,.16-.42,7.29,7.29,0,0,0-1-2.36c-.06-.09-.1-.23-.23,0s-.15,0-.22,0a1.58,1.58,0,0,1-.74-1.75c.09-.45.21-.9.32-1.36.05-.2.13-.21.31-.05a7.18,7.18,0,0,1,1.91,2.85,9.89,9.89,0,0,1,.51,1.94.15.15,0,0,0,.07.14,5.61,5.61,0,0,0,.64-1.11c.28-.68.54-1.37.84-2.05a3.87,3.87,0,0,1,1.38-1.72c.08-.05.16-.16.27-.1s.06.2.05.3c-.16,1.06-.33,2.12-.48,3.17a9.57,9.57,0,0,0-.1,2.14.69.69,0,0,0,.43.59,2.61,2.61,0,0,0,1,.23,10.29,10.29,0,0,0,2.2-.08,5,5,0,0,0-1.34-1,.7.7,0,0,0-.79.31c-.08.09-.13.24-.29.18a.42.42,0,0,1-.28-.37.88.88,0,0,1,.06-.43,2.33,2.33,0,0,1,1.16-1.25.92.92,0,0,1,1,.07A15.19,15.19,0,0,1,33.21,17a3.31,3.31,0,0,0,1.29.82l.45.1c.14,0,.17.11.11.24a1.65,1.65,0,0,1-.59.64,5.59,5.59,0,0,1-2.08.71,17.18,17.18,0,0,1-3.2.23A2,2,0,0,1,27.27,18a7.16,7.16,0,0,1,.07-1.79.56.56,0,0,0,0-.26"/><path class="cls-1" d="M17.62,21a2.88,2.88,0,0,1-1.05-.16,1.27,1.27,0,0,1-.91-1.22,3.88,3.88,0,0,1,.62-2,3.53,3.53,0,0,1,.58-.81c.07-.06.14-.17.26-.1s0,.18,0,.27a2.74,2.74,0,0,0-.27.79,1.2,1.2,0,0,0,.6,1.26,1.86,1.86,0,0,0,2.81-1.45c0-.78.17-1.54.24-2.32a6.31,6.31,0,0,0-.32-3.22.2.2,0,0,1,.06-.25A6.23,6.23,0,0,1,21.3,11c.09-.06.17,0,.21.08l.69,1.73c0,.07,0,.15-.06.17-.31.08-.39.33-.47.58a8.17,8.17,0,0,0-.29,1.7c-.11,1.06-.11,2.14-.16,3.21a2.18,2.18,0,0,1-1.16,1.84,4.76,4.76,0,0,1-2.44.66"/><path class="cls-1" d="M18.46,23.64c0-.52,0-1,0-1.56,0-.15.05-.2.2-.2.53,0,.53,0,.54.52,0,.25,0,.5,0,.75s0,.15.15.15H20c.13,0,.18,0,.18-.17,0-.35,0-.7,0-1.05,0-.14,0-.19.18-.19.55,0,.55,0,.55.52,0,.93,0,1.86,0,2.8,0,.16,0,.22-.22.22-.51,0-.51,0-.51-.5,0-.26,0-.53,0-.79s-.06-.2-.21-.2a5.61,5.61,0,0,1-.58,0c-.18,0-.25,0-.24.23,0,.36,0,.71,0,1.07,0,.14,0,.19-.18.19-.54,0-.54,0-.54-.52V23.64Z"/><path class="cls-1" d="M28.88,25.42c-.39,0-.39,0-.48-.38s-.09-.4-.52-.4-.39-.08-.5.4-.08.38-.46.38-.42,0-.32-.4l.72-2.89c0-.19.1-.29.31-.26s.58-.11.74.06.15.46.21.7c.22.83.42,1.67.63,2.5.07.29.07.29-.21.29Zm-1-2.55s-.05,0-.05,0c-.06.24-.12.49-.17.74s-.06.42.36.37c.09,0,.11,0,.09-.13-.08-.34-.15-.67-.23-1"/><path class="cls-1" d="M22.64,21.87c.5,0,.5,0,.62.49.24.95.47,1.9.72,2.84.05.18,0,.23-.17.22-.57,0-.58,0-.69-.55,0-.18-.11-.23-.29-.23-.6,0-.61,0-.74.6,0,.13-.08.2-.23.18s-.46.08-.56,0,.05-.36.1-.55c.21-.87.43-1.74.65-2.61.1-.41.05-.34.43-.35h.16m0,1-.05,0c-.06.25-.11.51-.17.76s-.06.44.35.38c.08,0,.12,0,.1-.12-.07-.35-.15-.69-.23-1"/><path class="cls-1" d="M24.33,23.64c0-.51,0-1,0-1.53,0-.17,0-.23.22-.23.53,0,.53,0,.53.54,0,.7,0,1.41,0,2.12,0,.18.06.24.24.23s.58,0,.86,0,.21,0,.21.19c0,.46,0,.46-.45.46s-.89,0-1.33,0c-.21,0-.28,0-.27-.26,0-.51,0-1,0-1.52"/><path class="cls-1" d="M29.59,23.65c0-.51,0-1,0-1.53,0-.17,0-.25.22-.24.52,0,.52,0,.52.51,0,.7,0,1.41,0,2.12,0,.22.07.27.28.26h.86c.12,0,.15,0,.16.16,0,.49,0,.49-.46.49s-.91,0-1.37,0c-.16,0-.22,0-.21-.21V23.65"/></svg>