<svg id="Layer_1" data-name="Layer 1" xmlns="http://www.w3.org/2000/svg" viewBox="0 0 50 35"><defs><style>.cls-1{fill:#faa630;}</style></defs><path class="cls-1" d="M15.38,12.44H28.16c.33,0,.7,0,.71.46s-.34.48-.68.49h-12c-.55,0-1.17-.16-1.29.68a.4.4,0,0,1-.54.34c-.38-.1-.34-.41-.29-.69a6.28,6.28,0,0,1,1.14-2.65c.52-.72,1.06-1.43,1.6-2.13s.84-1.22-.31-1.61a1,1,0,0,1-.58-1.52,6.84,6.84,0,0,0,.57-2.69A1.11,1.11,0,0,1,17.75,2H31.23c.38,0,.92-.11.9.5s-.57.45-.94.45C27,3,22.77,3,18.56,3c-1,0-1.43.55-1.28,1.58.07.51.41.42.71.42H36.44c.53,0,.89-.11.75-.73s.28-1.33-.78-1.28C35.6,3,34.79,3,34,3c-.33,0-.69,0-.68-.49S33.68,2,34,2H35.1c2.69,0,2.7,0,3.08,2.59a4.68,4.68,0,0,0,.38,1c.24.74.27,1.5-.65,1.81-.75.25-.63.7-.4,1.23a.86.86,0,0,0,.21.29c2.61,2.62,3.13,5.85,3,9.39s-.07,6.8,0,10.2c0,2,0,3.89-1.87,5.44h3a41.7,41.7,0,0,1,.29-15.31A8.22,8.22,0,0,0,41,12.15a5.29,5.29,0,0,1-.9-4.5,3.71,3.71,0,0,1,4.06-2.73A3.57,3.57,0,0,1,47.63,8a4.86,4.86,0,0,1-.74,3.72c-2,2.74-1.66,5.72-1.11,8.74a34.88,34.88,0,0,1,.61,7c0,.39.2,1-.49,1s-.47-.57-.45-.95a49.48,49.48,0,0,0-.87-8.67c-.34-2.48-.4-4.92,1.24-7.09a4.63,4.63,0,0,0,.91-2.48,2.88,2.88,0,0,0-1.23-3,3.4,3.4,0,0,0-3.56.11,2.94,2.94,0,0,0-1,3.05,4.42,4.42,0,0,0,.71,1.92c2,2.65,1.82,5.63,1.26,8.6a40.1,40.1,0,0,0-.38,12.32c.1.86.27,1.69,1.33,1.69s1.22-.88,1.33-1.71c.07-.52.11-1,.18-1.57,0-.29.14-.58.5-.55s.41.36.39.64A12.42,12.42,0,0,1,45.74,34l1,.06c.37,0,.93-.14.9.49s-.57.46-.95.46c-3.93,0-7.85,0-11.78,0H3.33c-.38,0-.93.08-.91-.51s.58-.41,1-.44a2.89,2.89,0,0,1,.72,0c.79.09,1-.14.91-1-.42-3.25-.74-6.51-1.08-9.77,0-.51-.1-.81-.76-1-1.24-.28-.78-1.41-.82-2.24A1,1,0,0,1,3.48,19c.74.06,1-.53,1.48-.91s1.1-.95,1.68-1.39c.28-.21.65-.47.93,0s-.11.58-.38.76A5.51,5.51,0,0,0,5.61,18.9H16.83A7.09,7.09,0,0,0,12,16.33a7,7,0,0,0-2.76.2c-.33.09-.8.29-.93-.21s.38-.62.75-.71a8.31,8.31,0,0,1,8,2.07c.67.61,1.18,1.37,2.3,1.37.74,0,.78.8.77,1.43s.16,1.67-.89,1.85c-.59.1-.7.36-.75.86-.33,3.34-.67,6.68-1.06,10-.08.65,0,.84.7.84,5.95,0,11.9,0,17.85,0a3.85,3.85,0,0,0,3.58-2.8c.32-1.14.18-1.33-1-1.33-6.2,0-12.39,0-18.58,0-.51,0-1.47.4-1.44-.52,0-.75.92-.4,1.41-.4q9.29,0,18.58,0c1,0,1.21-.3,1.2-1.23-.05-3.19-.06-6.39,0-9.58,0-.94-.28-1.2-1.17-1.13s-1.94,0-2.91,0c-.39,0-.92.08-.89-.52s.5-.42.84-.43c1.09,0,2.19,0,3.28,0,.64,0,.83-.21.84-.84,0-2.54-1.6-4.24-3-6-.23-.3-.61-.16-.92-.16-5.67,0-11.33,0-17,0a1.4,1.4,0,0,0-1.32.63c-.59.87-1.24,1.69-2.07,2.79m-4.15,7.49c-2.27,0-4.53,0-6.79,0-.5,0-1.18-.28-1.2.7s.72.76,1.25.77c2.67,0,5.34,0,8,0,.41,0,1-.15,1,.48s-.64.47-1,.47c-2.23,0-4.45,0-6.67,0-.84,0-1,.25-.94,1,.38,3.21.72,6.42,1,9.64.07.74.37,1,1.15,1,2.71,0,5.42-.06,8.13,0,1,0,1.24-.35,1.32-1.24.25-2.73.58-5.46.86-8.19.07-.68.34-1.5.07-2s-1.19-.15-1.81-.22c-.34,0-.71-.05-.72-.46s.43-.5.79-.5c.85,0,1.7,0,2.55,0,.54,0,.92,0,.92-.74s-.38-.76-.92-.76h-7M27.08,6.56c3.19,0,6.38,0,9.57,0,.35,0,1,.23,1-.34s-.58-.28-.9-.28h-19c-.31,0-.88-.21-.86.33s.59.29.91.29c3.11,0,6.22,0,9.32,0M36.33,8C35,7.27,18.82,7.42,18.2,8Z"/><path class="cls-1" d="M28.2,27.78A5,5,0,0,1,23.86,26c-.75-.9-1.06-2-1.77-3a1.4,1.4,0,0,1,.52-2.1,5.65,5.65,0,0,0,1.5-1.32,4.86,4.86,0,0,1,7.28.28,2.41,2.41,0,0,0,1,.86,1.73,1.73,0,0,1,.5,2.83,3.75,3.75,0,0,0-.74,1.2,4.57,4.57,0,0,1-3.9,3m-.66-.93a3.91,3.91,0,0,0,3.75-2.58c.19-.52.26-1,.83-1.39.41-.26.43-1.07-.13-1.14-.74-.09-.87-.61-1.19-1a3.73,3.73,0,0,0-2.14-1.49c-.23-.06-.5-.19-.68,0s0,.44.18.61.3.51,0,.73a.55.55,0,0,1-.76-.14,1.71,1.71,0,0,1-.46-.69c-.14-.71-.53-.58-1-.34-.28.16-.55.33-.83.51-.81.52-.95,1.76-2.13,1.93-.26,0-.31.71-.06.84.91.49.83,1.5,1.28,2.22a3.82,3.82,0,0,0,3.29,1.92"/><path class="cls-1" d="M24.73,17H17.57c-.4,0-.94.08-.94-.48s.55-.47.93-.47H32c.38,0,.94-.12.94.47S32.4,17,32,17H24.73"/><path class="cls-1" d="M31.56,13.4H31c-.35,0-.69-.05-.71-.47s.32-.49.66-.49h1.21c.36,0,.81,0,.83.46s-.42.49-.79.5h-.6"/><path class="cls-1" d="M27.63,23.79c.5.37,1.49-.5,1.61.68a1.77,1.77,0,0,1-1.62,1.79A1.78,1.78,0,0,1,26,24.47c.14-1.16,1.11-.32,1.63-.68m.87.8a5,5,0,0,0-1.73.05.83.83,0,0,0,.79.91c.51.05.81-.26.94-1"/><path class="cls-1" d="M26.84,22.74c-.53.11-1.1-.21-1.62.08-.1.06-.23-.2-.16-.36a.93.93,0,0,1,1.22-.5.73.73,0,0,1,.56.78"/><path class="cls-1" d="M29.5,22.66c-.27-.44-.94.77-1.05-.15-.05-.47.52-.66,1-.59s.75.24.7.66-.37.26-.65.08"/></svg>