<svg id="Layer_1" data-name="Layer 1" xmlns="http://www.w3.org/2000/svg" viewBox="0 0 50 35"><defs><style>.cls-1{fill:#faa630;}</style></defs><path class="cls-1" d="M11.56,20c.1-.25.17-.51.25-.77a3.28,3.28,0,0,1,3.13-2.34,3.4,3.4,0,0,1,1.58.4.9.9,0,0,0,.34.09.37.37,0,0,0,.36-.23l.06-.21a.54.54,0,0,0-.33-.44,4.22,4.22,0,0,0-4.73.51,5,5,0,0,0-1.5,2.77l0,.09a.45.45,0,0,0,.32.4h.14a.4.4,0,0,0,.4-.28"/><path class="cls-1" d="M24.42,30.48l2.21,1a.75.75,0,0,0,.3.08.41.41,0,0,0,.38-.25l0-.2c0-.16-.1-.31-.36-.44l-2-.92a3,3,0,0,1-1.61-1.64c-.26-.65-.54-1.3-.81-2-.12-.25-.21-.34-.45-.36a.43.43,0,0,0-.44.43l0,.21c.3.74.6,1.48.93,2.21a3.63,3.63,0,0,0,1.8,1.84"/><path class="cls-1" d="M32.39,25.64l.24.14a7,7,0,0,0,3.59,1q.33,0,.66,0c1.74-.17,3.48-.43,5.22-.65a.73.73,0,0,0,.45-.16c.06-.06.1-.17.1-.41v-.11c-.06-1.59-.14-3.17-.21-4.75a7.16,7.16,0,0,0-2.53-5.26C39,14.62,38,13.85,37.1,13.05A9.7,9.7,0,0,0,35.6,12a6.32,6.32,0,0,0-3-.77,6.77,6.77,0,0,0-1.09.09h0l-.18,0h0l-.17-.06,0,0L31,11v0l0-.13h0A7.73,7.73,0,0,0,31.31,9a8.77,8.77,0,0,0-.2-1.83,9,9,0,0,1-.22-2,7.9,7.9,0,0,1,.23-1.93l0-.2c0-.29-.14-.41-.44-.43l-.17,0a24.7,24.7,0,0,0-3.29.93,15.14,15.14,0,0,0-5.45,3.3h0L21.62,7h0l-.18.08h0a.35.35,0,0,1-.24-.14h0L21,6.75A8.35,8.35,0,0,0,13.58,2.4h-.13a.81.81,0,0,0-.47.12.35.35,0,0,0-.12.28,1.07,1.07,0,0,0,.07.35,6.72,6.72,0,0,1,.42,2.29A6,6,0,0,1,13.15,7a9,9,0,0,0-.29,2.14,8.65,8.65,0,0,0,1.08,4.06h0a.61.61,0,0,1,.1.27v0l-.12.2h0l-.2.08h0A6.15,6.15,0,0,0,9,17.91c-.51,1.43-.95,2.88-1.37,4.34a7.32,7.32,0,0,0-.3,2.05,6.85,6.85,0,0,0,.87,3.34c.81,1.5,1.7,3,2.55,4.46.17.27.27.33.42.34a.86.86,0,0,0,.34-.1l4.41-2.06a7.32,7.32,0,0,0,3-2.51h0a.59.59,0,0,1,.27-.28l.21-.1,0,.08.05.14.15.5a7.29,7.29,0,0,0,4.07,4.78l4.28,2a1,1,0,0,0,.39.11c.15,0,.25-.07.43-.37L31,30.71a9,9,0,0,0,.72-1.5,7.16,7.16,0,0,0,.4-2.43,7.5,7.5,0,0,0,0-.94l0-.38.12.07ZM21.51,8.42a13.3,13.3,0,0,1,5.82-4,18.47,18.47,0,0,1,2.26-.71h0l.2,0h0l.18.08v0l.06.18h0V4.1h0a5.33,5.33,0,0,0-.08,1,12.09,12.09,0,0,0,.29,2.37A8.06,8.06,0,0,1,30.42,9a6.08,6.08,0,0,1-.28,1.88,2.16,2.16,0,0,1-1,1.3A6.11,6.11,0,0,0,26.41,16h0l-.11.25,0,0-.25.11h0l-.16,0h0a5.85,5.85,0,0,0-1.31-.15,6.11,6.11,0,0,0-.73.05h-.16l-.24-.08v0l-.08-.22v0l0-.17h0a12.55,12.55,0,0,1,3.79-6.64.56.56,0,0,0,.23-.4V8.61a.4.4,0,0,0-.28-.36l-.16,0a.58.58,0,0,0-.35.16,13.38,13.38,0,0,0-2.28,2.7,13.14,13.14,0,0,0-1.93,5.16h0a.55.55,0,0,1-.35.47h0a4.16,4.16,0,0,0-.84.43h0l-.2.07h0a.35.35,0,0,1-.3-.21h0a6,6,0,0,0-1.07-1.48.68.68,0,0,1-.18-.51v-.39h0V14.4h0a9.57,9.57,0,0,1,2.14-6m-7.76.73A7.15,7.15,0,0,1,14,7.44a9.2,9.2,0,0,0,.25-2.06,7.35,7.35,0,0,0-.16-1.55l0-.24v0h0l.09-.2h0l.17,0h0l.22,0a7.39,7.39,0,0,1,5.2,3,10.47,10.47,0,0,1,.84,1.35h0v0l.07.23V8a.53.53,0,0,1-.12.32,9.84,9.84,0,0,0-1.35,2.54h0l-.09.18h0l-.19.1h0a.48.48,0,0,1-.29-.16h0A5.63,5.63,0,0,1,17,8a9.26,9.26,0,0,1-.13-.92.44.44,0,0,0-.45-.45h0c-.24,0-.39.15-.41.61v0a6.51,6.51,0,0,0,2.18,4.54,1.12,1.12,0,0,1,.51.89,1.31,1.31,0,0,1-.06.38,8,8,0,0,0-.1,1h0l-.05.2h0l-.2.13,0,0-.18,0h0a6.21,6.21,0,0,0-2.45-.73h0a.54.54,0,0,1-.39-.23h0a7.47,7.47,0,0,1-1.4-4.25m4.39,13.3a7.26,7.26,0,0,0,.36,2.19,5.68,5.68,0,0,0,.24.73,1.19,1.19,0,0,1,.08.41,1.32,1.32,0,0,1-.14.56,6.36,6.36,0,0,1-3.06,3.1c-1.27.61-2.54,1.19-3.81,1.79h0l-.22.06h0a.43.43,0,0,1-.37-.27h0L9.07,27.35a6.29,6.29,0,0,1-.82-3.11v0h0v0a5.86,5.86,0,0,1,.31-1.9C9,20.8,9.4,19.23,10,17.76a5.11,5.11,0,0,1,4.8-3.23H15a5.27,5.27,0,0,1,4.89,3.08h0l.06.23v0a.51.51,0,0,1-.15.35l-.06,0,.06,0a6.33,6.33,0,0,0-1.71,4.23m12.29,7.49c-.68,1.23-1.4,2.44-2.1,3.66a.43.43,0,0,1-.37.27h0l-.22-.06h0c-1.3-.62-2.62-1.21-3.92-1.85a6.05,6.05,0,0,1-3.15-3.56c-.49-1.42-.94-2.86-1.36-4.3a5.35,5.35,0,0,1,1.35-5.39,5.56,5.56,0,0,1,4-1.62h0a5.1,5.1,0,0,1,1.22.17h0l.23.12v0l.09.23v0a6.55,6.55,0,0,0,2.86,5.26c.54.41,1,.86,1.53,1.28a.87.87,0,0,1,.25.33,7.19,7.19,0,0,1,.4,2.3,6.28,6.28,0,0,1-.83,3.11m-1.38-8.22a5.46,5.46,0,0,1,3.5-9.64,5.52,5.52,0,0,1,3.55,1.3L39.24,16a6.28,6.28,0,0,1,2.3,4.53c.05.69.07,1.37.1,2v.19h0c0,.69.06,1.37.1,2h0v.07l-.08.27h0a.49.49,0,0,1-.3.14c-1.53.18-3.06.44-4.62.56a4.18,4.18,0,0,1-.51,0,6,6,0,0,1-3.93-1.47c-1.09-.9-2.16-1.81-3.23-2.72"/><path class="cls-1" d="M29.18,16.34l.22.07a.52.52,0,0,0,.43-.3,3.3,3.3,0,0,1,2.87-1.72,3.45,3.45,0,0,1,2.19.82l.54.45a.54.54,0,0,0,.34.13.41.41,0,0,0,.32-.14.47.47,0,0,0,.11-.28A.48.48,0,0,0,36,15c-.26-.23-.52-.45-.79-.66a4,4,0,0,0-2.08-.84,4.36,4.36,0,0,0-4.08,2.17h0A.68.68,0,0,0,29,16a.38.38,0,0,0,.21.36"/></svg>