<svg id="Layer_1" data-name="Layer 1" xmlns="http://www.w3.org/2000/svg" viewBox="0 0 50 35"><defs><style>.cls-1{fill:#faa630;}</style></defs><path class="cls-1" d="M13,7.5a.43.43,0,0,0-.26-.1h-.07a.28.28,0,0,0-.28.18h0a5,5,0,0,0-.22.89,6,6,0,0,1-.53,1.81c-.2.4-.4.77-.55,1.16l0,.18a.39.39,0,0,0,.17.3l.19.07a.49.49,0,0,0,.27-.12.86.86,0,0,0,.24-.28c.15-.25.28-.53.42-.82A7.45,7.45,0,0,0,13.1,8V7.68c0-.11,0-.15-.06-.18"/><path class="cls-1" d="M12.55,20.67a1.62,1.62,0,0,0,.57,1.16,1.54,1.54,0,0,0,1.05.5,1.16,1.16,0,0,0,.4-.07A1.76,1.76,0,0,0,15.86,21a1.45,1.45,0,0,0,0-.28,2.08,2.08,0,0,0-.23-.81,9.22,9.22,0,0,0-1-1.91c-.18-.23-.33-.29-.42-.29s-.25.07-.43.34a10.9,10.9,0,0,0-.93,1.63,2.22,2.22,0,0,0-.3,1v0h0Zm.86,0h0a3.16,3.16,0,0,1,.51-1.28l.06-.11h.13l.32,0,.08.14a3.37,3.37,0,0,1,.54,1.28v0a.77.77,0,0,1-.24.58.85.85,0,0,1-.6.21h0a.88.88,0,0,1-.57-.18.68.68,0,0,1-.24-.53Z"/><path class="cls-1" d="M11.23,13.47a.46.46,0,0,0-.14-.29.32.32,0,0,0-.24-.14l-.28.13-.14.3a.41.41,0,0,0,.43.4.39.39,0,0,0,.37-.4"/><path class="cls-1" d="M40.77,27.4a1.73,1.73,0,0,0,1.68-1.19,2,2,0,0,0,.08-.61c0-.18,0-.36,0-.56a1.62,1.62,0,0,0-1.4-1.61c-.45,0-.89-.07-1.31-.07a4,4,0,0,0-.6,0h-.1a.44.44,0,0,1-.34-.15.5.5,0,0,1-.1-.34h0v-.64c0-.27,0-.55,0-.82a2.83,2.83,0,0,0-.13-.93,13.07,13.07,0,0,0-.93-2.13,5.63,5.63,0,0,0-1.86-2.15,2.33,2.33,0,0,0-1.24-.42,1.83,1.83,0,0,0-.59.1h0a1,1,0,0,1-.25,0,.48.48,0,0,1-.31-.1.85.85,0,0,1-.21-.25A6.56,6.56,0,0,0,30.9,13.1a2.71,2.71,0,0,0-1.46-.45,2.57,2.57,0,0,0-.8.13,4.17,4.17,0,0,0-1.49.94A7.72,7.72,0,0,0,25.54,16h0l-.12.17a.37.37,0,0,1-.25.1.52.52,0,0,1-.25-.07,3.06,3.06,0,0,0-.89-.34h0l-.3,0a2.34,2.34,0,0,0-1.47.57c-.26.21-.51.45-.81.71l-.32.28L21,17l0-.14v0c0-.19,0-.38,0-.59A10.3,10.3,0,0,0,20.33,13c-.41-1.13-.92-2.24-1.4-3.36A10.69,10.69,0,0,1,18,6.51h0a1.06,1.06,0,0,1,0-.24l0-.2.18-.16a1.39,1.39,0,0,1,.35,0,.52.52,0,0,0,.35-.1.46.46,0,0,0,.13-.35c0-.4,0-.8,0-1.19s0-.87,0-1.31a.42.42,0,0,0-.12-.32.46.46,0,0,0-.34-.1H9.8a.38.38,0,0,0-.4.34,4,4,0,0,0-.05.7c0,.26,0,.53,0,.81s0,.44,0,.64a4.12,4.12,0,0,0,0,.51.43.43,0,0,0,.38.37h.28a.41.41,0,0,1,.29.1.38.38,0,0,1,.11.29v0h0a6.8,6.8,0,0,1-.49,2c-.57,1.43-1.26,2.81-1.82,4.21a8,8,0,0,0-.64,3c0,.63,0,1.25,0,1.86,0,.21,0,.42,0,.63h0v.16c0,.28,0,.55,0,.82,0,.68,0,1.36,0,2.05,0,.22,0,.44,0,.66s0,.7,0,1.06,0,1,0,1.5h0v1.4c0,.42,0,.84,0,1.27,0,.6,0,1.2,0,1.8,0,.75,0,1.5,0,2.24a3,3,0,0,0,.14,1A4.84,4.84,0,0,0,9.78,34.6a1.93,1.93,0,0,0,1,.36H18l.21-.06a5,5,0,0,0,1.56-1.14h0a.5.5,0,0,1,.33-.17.35.35,0,0,1,.24.1l.12.15a3.79,3.79,0,0,0,.65.91.71.71,0,0,0,.47.22h1c.42,0,.84,0,1.26,0h1.7a.93.93,0,0,0,.75-.33,6.54,6.54,0,0,0,.82-1.37c.35-.77.62-1.57.9-2.38h0a.67.67,0,0,1,.19-.29.56.56,0,0,1,.35-.11h1.33a.57.57,0,0,1,.31.12,1.24,1.24,0,0,1,.31.58A14.4,14.4,0,0,0,32,34.45a1.05,1.05,0,0,0,.81.5c.55,0,1.1,0,1.65,0h2a1.47,1.47,0,0,0,.33-.05.88.88,0,0,0,.61-.28,4.38,4.38,0,0,0,.67-1.11,10.61,10.61,0,0,0,.44-1.31A20.67,20.67,0,0,0,39,29.69c.08-.6.18-1.18.22-1.76a.63.63,0,0,1,.11-.36.51.51,0,0,1,.41-.18h0l.41,0h.53m-7-10.52h0a1.13,1.13,0,0,1,.67-.23,1.46,1.46,0,0,1,.9.35,6.36,6.36,0,0,1,1.72,2.2,8.71,8.71,0,0,1,.79,2.68c0,.1,0,.2,0,.3a5.68,5.68,0,0,1-.09.85.44.44,0,0,1-.18.29.51.51,0,0,1-.27.08H37a6.2,6.2,0,0,0-.86,0c-.52,0-1,0-1.58,0h-.1l-1.6,0c-.36,0-.72,0-1.08,0h-.08a.5.5,0,0,1-.36-.14.54.54,0,0,1-.14-.35q0-.33,0-.63a6.09,6.09,0,0,1,.28-1.84,9,9,0,0,1,1.11-2.29,5.63,5.63,0,0,1,1.3-1.28m-7.69-.14h0a7.12,7.12,0,0,1,1.66-2.48,3.78,3.78,0,0,1,1.15-.7,1.48,1.48,0,0,1,.49-.08,2,2,0,0,1,1,.34,5.23,5.23,0,0,1,1.88,2.08h0l.08.16a.89.89,0,0,1,.2.47.41.41,0,0,1-.12.28l-.17.19a10.64,10.64,0,0,0-1.27,2,13.16,13.16,0,0,0-.55,1.35,3.28,3.28,0,0,0-.19,1v1.52h0a.48.48,0,0,1-.09.32.4.4,0,0,1-.35.15h0l-.92,0a4.93,4.93,0,0,0-.55,0h-.06a.37.37,0,0,1-.31-.14.43.43,0,0,1-.09-.29h0v-.19h-.05V21.66c0-.18,0-.37,0-.54a5.14,5.14,0,0,0-.51-1.65,14.18,14.18,0,0,0-1.17-2.16.69.69,0,0,1-.11-.35Zm-5.4,3.44a8.15,8.15,0,0,1,1-2,5.29,5.29,0,0,1,1.34-1.33,1.16,1.16,0,0,1,.66-.22,1.12,1.12,0,0,1,.58.17,4.91,4.91,0,0,1,1.78,1.9,7.92,7.92,0,0,1,1,3c0,.19,0,.36,0,.52v.06a5.48,5.48,0,0,1-.07.73h0a.55.55,0,0,1-.16.31.45.45,0,0,1-.34.11h0c-.26,0-.5,0-.72,0h-2c-.23,0-.45,0-.68,0h-.24l-.78,0h-.23c-.31,0-.63,0-.95,0h0a.49.49,0,0,1-.38-.16.5.5,0,0,1-.12-.35c0-.16,0-.33,0-.49a6.43,6.43,0,0,1,.36-2.23M10.36,4.92a.42.42,0,0,1-.15-.37V4.49c0-.09,0-.18,0-.27s0-.25,0-.37h0v0a.5.5,0,0,1,.14-.36.51.51,0,0,1,.36-.11h7a.53.53,0,0,1,.37.11.48.48,0,0,1,.14.37v.05h0v.83a.38.38,0,0,1-.16.26L17.9,5H10.73a.55.55,0,0,1-.37-.12M8.42,14.55a12.92,12.92,0,0,1,.67-2c.49-1.26,1.12-2.45,1.59-3.68a9.09,9.09,0,0,0,.61-2.37,1.69,1.69,0,0,1,0-.25A.46.46,0,0,1,11.38,6l.17-.13.2,0h4.87A.55.55,0,0,1,17,6a.51.51,0,0,1,.17.36A10.42,10.42,0,0,0,17.41,8a21.46,21.46,0,0,0,1,2.57c.51,1.16,1,2.34,1.42,3.56.06.19.09.37.14.52h0l0,.14a.33.33,0,0,1-.13.29.44.44,0,0,1-.27.08h-.19c-.35,0-.72,0-1.1,0a4.1,4.1,0,0,1-.49,0h-.19c-.2,0-.43,0-.67,0h-.12c-.32,0-.65,0-1,0H12.61c-.34,0-.67,0-1,0h-.25l-1,0h0c-.31,0-.64,0-1,0l-.5,0-.2,0A.4.4,0,0,1,8.43,15l0-.18Zm0,1.56A.54.54,0,0,1,8.82,16H19.76l.24.07.12.17,0,.21v.18c0,.4,0,.8,0,1.2,0,.19,0,.38,0,.57h0v.11a3.36,3.36,0,0,1-.3,1.42,3.91,3.91,0,0,0-.36,1.76v.07h0c0,.29,0,.55,0,.81v.18h0v.11a.52.52,0,0,1-.13.38.58.58,0,0,1-.37.12h-.15l-.61,0a1.8,1.8,0,0,0-1.84,1.57h0l-.12.27-.28.11H11.48l-1.53,0c-.34,0-.69,0-1,0H8.75l-.2,0-.2-.18a1,1,0,0,1,0-.38V16.51a.53.53,0,0,1,.14-.4M19.5,32.74a4.56,4.56,0,0,1-1.2,1.2,1.27,1.27,0,0,1-.58.17c-1.55,0-3.09,0-4.64,0H10.83a1.55,1.55,0,0,1-.89-.42A4.15,4.15,0,0,1,8.55,32a4.43,4.43,0,0,1-.2-1.3c0-.52,0-1.05,0-1.57V26.62a.52.52,0,0,1,.14-.38.52.52,0,0,1,.38-.12h7.06a.68.68,0,0,1,.37.09.8.8,0,0,1,.27.28A1.61,1.61,0,0,0,18,27.4h.23l.2,0,.22.15a.92.92,0,0,1,.11.39c.22,1.43.49,2.84.85,4.24h0l0,.17a.63.63,0,0,1-.14.37M38.42,28h0c-.14,1.08-.29,2.17-.52,3.25a11.2,11.2,0,0,1-.9,2.59h0a.59.59,0,0,1-.2.22.54.54,0,0,1-.3.08H33.17a.6.6,0,0,1-.31-.08.58.58,0,0,1-.22-.22A19.31,19.31,0,0,1,31,30.28c-.1-.24-.16-.4-.21-.49s-.06-.09-.09-.1l-.13,0-.47,0c-.28,0-.55,0-.83,0l-1.22,0c-.31,0-.44,0-.5.09a1,1,0,0,0-.24.46c-.19.59-.37,1.18-.59,1.78a10,10,0,0,1-.91,1.9h0a.57.57,0,0,1-.53.29H22a.6.6,0,0,1-.34-.09.68.68,0,0,1-.22-.26,16.59,16.59,0,0,1-1.42-5c0-.23-.09-.48-.13-.72h0l0-.21,0-.19.16-.15a.68.68,0,0,1,.31,0c1.4,0,2.81,0,4.21,0H36.8c.4,0,.79,0,1.16,0a.5.5,0,0,1,.33.11.43.43,0,0,1,.14.34Zm1.32-1.47h-.68c-.7,0-1.43,0-2.17,0h-16c-.91,0-1.84,0-2.77-.08a2.8,2.8,0,0,1-.59-.11.62.62,0,0,1-.3-.18.53.53,0,0,1-.13-.35l0-.12c0-.1,0-.19,0-.28s0-.21,0-.32h0l0-.17a.51.51,0,0,1,.15-.38.73.73,0,0,1,.36-.16,10.63,10.63,0,0,1,2-.15H31.39c2.69,0,5.37,0,8.06,0h.83a5.27,5.27,0,0,1,.78.05.57.57,0,0,1,.59.6,5.17,5.17,0,0,1,0,.57,4.36,4.36,0,0,1,0,.51.65.65,0,0,1-.16.35.62.62,0,0,1-.36.16c-.3,0-.59,0-.89,0h-.5"/></svg>