<svg id="Layer_1" data-name="Layer 1" xmlns="http://www.w3.org/2000/svg" viewBox="0 0 50 35"><defs><style>.cls-1{fill:#faa630;}</style></defs><path class="cls-1" d="M20.87,20.79A20.35,20.35,0,0,0,21,23.86a4.06,4.06,0,0,0,2.56,3.06.88.88,0,0,1,.64,1c-.14,2.09-.24,4.18-.35,6.27,0,.29,0,.59-.39.61s-.48-.28-.47-.61c.08-1.63.14-3.26.26-4.89.08-.89.15-1.57-.89-2.13A4.51,4.51,0,0,1,20,23.07c0-1.85,0-3.71,0-5.56a1.11,1.11,0,0,0-.61-1.11A11.24,11.24,0,0,1,13.62,5.72c0-.66.23-1,1-1.11a10.82,10.82,0,0,1,7.13,1.8c.58.38.84.33,1.29-.21,3.17-3.72,7.18-4.9,11.9-3.82a1.26,1.26,0,0,1,1,1,11.39,11.39,0,0,1-5.07,12.85A1.45,1.45,0,0,0,30,17.7c0,1.77,0,3.55,0,5.32a4.78,4.78,0,0,1-2.65,4.46,1,1,0,0,0-.57,1.24,51.68,51.68,0,0,1,.28,5.7c0,.25,0,.52-.33.57s-.46-.25-.49-.51c0-.44-.05-.87-.06-1.31A41.93,41.93,0,0,0,25.9,28a.91.91,0,0,1,.65-1.12,3.9,3.9,0,0,0,2.62-3.69c.06-1.79,0-3.59.07-5.39,0-.54-.15-.71-.73-.53-1.57.5-1.57.47-1.57,2.1,0,.52,0,1,0,1.55,0,.29,0,.6-.39.59s-.39-.33-.4-.6c0-.79,0-1.58,0-2.37,0-.55-.2-.82-.77-.75a2.18,2.18,0,0,1-.57,0c-.75-.11-1,.26-.92.94s0,1.37,0,2.05c0,.3.07.74-.42.73s-.35-.42-.35-.71c0-.79,0-1.58,0-2.37a.76.76,0,0,0-.68-.9c-1.56-.39-1.55-.42-1.55,1.15ZM15.36,5.11c-1.11,0-1.2.07-1.18,1.43a11.09,11.09,0,0,0,.15,1.62,10.68,10.68,0,0,0,5.84,8c.17.09.36.23.53.11s.06-.34,0-.53A11.13,11.13,0,0,1,21.83,8c.29-.53.12-.76-.3-1a11.46,11.46,0,0,0-6.17-1.84m17.16,8.67a.63.63,0,0,0,.65-.24,10.54,10.54,0,0,0,2.21-4.13c.11-.37,0-.56-.41-.58l-6.65-.45a.73.73,0,0,0-.6.18,28.43,28.43,0,0,0-3.5,4.09c-.21.31-.13.5.27.53l8,.6M32,2.6a10.47,10.47,0,0,0-6.09,1.76,1.4,1.4,0,0,0-.75,1.53c.14,1.05.22,2.11.33,3.16,0,.2-.07.48.18.58s.37-.16.51-.31a29.1,29.1,0,0,1,3-2.81,28.21,28.21,0,0,1,4.67-3.13c.18-.1.49-.14.48-.38s-.39-.2-.59-.27A5.59,5.59,0,0,0,32,2.6M24.7,17.29a10.86,10.86,0,0,0,7-2.36c.15-.11.37-.22.34-.42s-.28-.22-.46-.24L24,13.73a.75.75,0,0,0-.81.41L22,16.27c-.22.39-.11.59.32.68a9,9,0,0,0,2.35.34M21.48,16a34.42,34.42,0,0,1,3.37-5.17.86.86,0,0,0,.11-.7c-.13-1.21-.24-2.43-.38-3.65,0-.24.14-.62-.21-.7s-.44.27-.61.47a10.83,10.83,0,0,0-2.7,6.43A7.46,7.46,0,0,0,21.48,16m14.34-9.7A17.15,17.15,0,0,0,35.5,4c-.12-.53-.34-.63-.85-.38a27.69,27.69,0,0,0-5.36,3.55c-.19.16-.56.27-.43.59s.44.18.67.19c1.44.09,2.88.1,4.31.26,1.9.21,2,.18,2-1.9"/></svg>